<?xml version="1.0" encoding="utf-8"?>
<!-- Generator: Adobe Illustrator 25.1.0, SVG Export Plug-In . SVG Version: 6.00 Build 0)  -->
<svg version="1.1" id="Layer_1" xmlns="http://www.w3.org/2000/svg" xmlns:xlink="http://www.w3.org/1999/xlink" x="0px" y="0px"
	 viewBox="0 0 1366 398" style="enable-background:new 0 0 1366 398;" xml:space="preserve">
<style type="text/css">
	.st0{fill:#6A5D4E;}
</style>
<g>
	<path class="st0" d="M1554.46,349.94c-2.7-1.38-5.72-2.34-8.65-3.25c-80.59-25.08-162.01-53.01-228.39-101.81
		c-7.93-5.83-34.08-24.88-34.08-24.88s-13.31-2.37-21.83,0c-7.99,2.23-20.74,7-20.74,7s-30.5-35.55-43.63-50.49
		c-13.22-15.03-31.77-25.07-50.09-34.05c-17.52-8.59-36-16.62-50.46-29.39c-7.78-6.87-14.93-14.02-24.44-18.95
		c-8.26-4.28-17.36-7.23-26.4-9.8c-16.87-4.79-38.44-8.03-48.98-21.87c-4.12-5.41-25.54-2.05-31.04,2.55
		c-31.43,26.32-53.6,42.6-89.7,63.05c-18.24,10.34-36.55,20.6-54.42,31.47c-17.19,10.45-33.6,22.01-51.25,31.81
		c-18.63,10.34-38.71,18.32-60.92,16.77c-5.38-0.38-10.69,1.79-16.07,1.15c-8.61-1.02-18.39-13.47-24.56-18.66
		c-14.73-12.39-30.68-23.46-48.48-31.89c-8.97-4.25-20.6-4.53-27.86-10.95c-7.64-6.75-32.74,0.25-32.74,0.25
		s-8.27,13.01-14.01,19.28c-6.03,6.59-12.27,13.02-18.7,19.29c-28.6,27.88-60.92,52.27-96.23,72.67
		c-13.7-22.63-46.41-64.52-46.41-64.52s-11.79-4.32-15.44,0c-5.76,6.82-11.61,13.57-17.52,20.27
		c-15.41-12.1-30.15-24.91-44.09-38.42c-8.05-7.81-14.87-16.67-23.36-24.08C263.94,135,268.89,130.65,257.39,131
		c-6.42,0.2-5.46,1-13.16,10.97c-3.59,4.65-8.34,8.45-12.31,12.83c-7.29,8.05-14.2,16.39-21.1,24.72
		c-13.15,15.86-26.36,31.8-42.35,45.39c-16.14,13.72-34.97,24.47-56.69,28.45c-2.36-2.38-2.72-7.16-3.27-10.02
		c-0.96-5.05-2.74-15.18-2.74-15.18s-11.28-7.68-18.24-4.41S30.45,282.26-2.14,307.4c-1.01,0.39-1.85,1.07-2.49,1.91
		c-6.87,5.26-13.82,10.42-20.88,15.47c-4.65,3.32-3.81,10.65,0,14.14c4.59,4.21,10.77,3.33,15.44,0
		c8.87-6.34,17.59-12.85,26.16-19.52c3.87,0.33,7.71,0.98,11.5,1.93c3.34,0.84,6.54,10.46,9.33,2.69
		c2.99-8.33,2.54-18.58,8.23-26.22c4.49-6.03,11.24-11.49,16.55-17.01c8.88-9.23,17.76-18.46,26.64-27.69
		c-0.43,1.06-0.58,2.28-0.3,3.63c2.65,12.8,3.17,26.01,1.38,38.94c-1.57,11.35-4.6,21.77-14.24,29.53
		c-7.48,6.02-16.77,9.99-25.3,14.57c-9.21,4.95-20.62,14.43-27.15,22.25c-3.73,4.46,9.82,1,9.82,1s26.81-3.31,39.7-6.74
		c2.81-0.75,5.43-1.99,7.74-3.64c2.1-1.5,3.1-1.29,4.95-1.62c0,1.93,2.02,5.95,3.29,7.5c2.81,3.44,3.26,9.5,3.26,9.5
		c11.59-22.02,19.97-44.94,32.21-66.7c1.16-2.06,2.95-3.79,5.22-4.82c6.66-3,9.12,3.78,10.63,8.16c0.42,1.22,4.07,11.54,5.42,6.36
		c1.76-6.7,11.07-23.19,15.89-28.63c4.92-5.56,12.65-7.92,17.87-13.19c5.11-5.16,8.14-11.74,11.74-17.81
		c4.07-6.87,8.38-13.63,12.9-20.26c8.49-12.46,17.79-24.46,27.8-35.94c9.76-11.19,20.43-24.59,32.89-33.28
		c5.24,3.59,5.66,12.55,6.59,17.91c1.23,7.13,4.95,15.24,1.5,22.22c-3.82,7.74-14.2,11.14-23.57,13.16
		C232.29,222,231.2,232,231.2,232s5.47-1.39,13.05-2.74c1.86-0.33,3.76-0.7,5.67-1.1c1.96,0.37,3.8,1.5,4.65,3.12
		c1.06,2.02,0.09,4.43-0.44,6.47c-0.79,3.03-1.43,6.08-1.45,9.21c-0.04,6.26,2.24,12.26,2.93,18.44c0.66,5.94-0.97,11.54-3.45,17
		c-4.76,10.47-10.81,19.98-13.15,31.26c-1.72,8.3-20.91,48.35-20.91,48.35s9.75-6.8,17.91-10.96c4.65-2.37,9.3-4.75,13.96-7.12
		c0.52,1.39,0.58,2.87,0.2,4.47c-0.17,0.55-1.35,12.06-1.51,12.61c-1.31,4.44,3.95,1.05,5.6-0.09c3.48-2.4,7.88-5.2,9.53-9.02
		c2.14-4.96,3.2-10.19,5.61-15.11c2.43-4.97,5.37-9.72,8.67-14.25c6.68-9.16,14.83-17.43,23.92-24.61c0.96-0.76,1.83-1.6,2.53-2.57
		c4.61-6.41,11.33-11.86,16.96-17.57c6.4-6.49,12.71-13.05,18.95-19.68c12.61-13.39,24.9-27.03,36.85-40.92
		c1.89,2.08,3.68,4.22,5.42,6.39c4.84,9.08,2.66,18.54,0.97,28.67c-5.13,30.75,4.73,6.28,7.97,4.75
		c5.19-2.44,10.07,5.63,13.33,10.16c3.66,5.08,2.95,11.25,8.22,15.69c4.43,3.73,8.05,4.98,8.2,11.12c0.14,5.73-2.52,11.4-6.11,16
		c-6.61,8.47-17.55,12.76-27.16,17.69c-9.62,4.93-18.87,10.9-23.9,20.16c-2.99,5.51-3.15,7.18-3.15,7.18s28.03-6.97,36.61-9.15
		c8.89-2.26,16.34-0.38,24.59,2.8c8.39,3.24,16.51,5.35,25.67,5.66c9.28,0.32,18.56-0.81,27.84-0.38
		c15.69,0.72,29.02,8.87,41.87,16.34c20.32,11.82,41.37,15.53,64.98,17.72c-1.84-1.25-3.97-2.63-4.98-4.49
		c4.98-1.51,14.86-3.5,22.44-1.51c7.64,2,14.19,2,24.01,2c0,0-64.34-26.95-78.84-36.69c-3.12-2.1,0.44-3.44-3.02-5.31
		c12.09-0.1,17.44-1.41,29.29-0.01c7.43,0.88,14.53,3.17,21.9,4.32c7.95,1.24,16.01,1.14,23.99,2.09
		c15.36,1.83,43.96,13.22,43.96,13.22L648.12,348c0,0-7.76-8.97-22.87-11.54c-7.59-1.29-15.25-1.54-22.92-2.15
		c-7.81-0.62-15.17-2.87-22.82-4.23c-22.85-4.07-46.52,2-69.22-3.27c-14.34-3.33-27.59-10.24-38.99-18.78
		c-5.71-4.28-10.84-9.03-15.69-14.11c-3.32-3.48-9.18-8.77-8.32-13.93c0.5-3.01,12.43-12.44,27.7-24.05
		c7.43-3.4,13.65-8.87,19.98-13.89c9.54-7.56,20.85-12.77,31.31-19.13c10.54-6.41,19.37-13.99,26.27-23.76
		c6.47-9.17,11.33-19.18,17.9-28.29c1.18-1.39,2.37-2.78,3.6-4.13c1.54,13,0.95,49.26,0.95,49.26s9.34-2.27,13.15-6.83
		c5.65-6.76,13.33-12.1,21.75-15.55c1.36-0.56,2.75-1.05,4.16-1.49c1.88-0.59,7.51-2.82,9.4-1.94c1.63,0.76,1.98,6.13,2.12,7.61
		c0.27,2.89,0.19,5.89-0.33,8.75c-1.06,5.81-3.52,11.26-6.92,16.24c-13.19,19.25-37.75,25.24-61.33,24.25
		c-6.19-0.77-38.75,10.96-38.75,10.96s10.43-1.68,18.25-0.27c6.14,1.1,12.5,1.85,18.91,2.18c10.3,1.3,20.57,2.81,30.79,4.6
		c6.51,1.14,13.11,2.21,19.52,3.79c7.36,1.82,11.61,5.36,16.47,10.59c8.52,9.17,18.18,15.56,31.21,18.21
		c13.77,2.81,27.68,1.53,41.55,0.17c14.73-1.45,18.67,7.75,18.67,7.75s53.83-0.32,67.54,4.75c27.72,10.26,54.04,23.56,82.65,31.78
		c20.31,5.84,42.53-3.58,63.73-0.54c10.41,1.5,14.95,5.47,25.1,8c3.19,0.8,23.22,11.33,25.1,14c-7.28-10.23-12.97-22.25-22.87-30.68
		c-10.74-9.15-25.52-12.53-39.64-14.46c-15.1-2.07-29.78-3.83-44.18-8.69c-15.78-5.32-30.59-12.85-44.94-20.8
		c0.34-0.57,0.61-1.23,0.76-2c0.23-1.13,8.45-2.45,10.24-2.9c4.67-1.16,9.23-2.32,13.19-4.98c18.11-12.17,35.95-25.34,55.52-35.52
		c4.96-2.58,10.51-4.6,15.93-3.37c3.46,7.35,3.16,15.63-1.12,22.82c-1.56,2.62-5.1,5.58-5.1,5.58s17.17-3.2,18.55,2
		c1.25,4.69,6.55,36,6.55,36s7.06-9.02,11.92-10.72c2.06-0.72,4.76-2.34,7.05-1.84c2.09,0.45,3.7,2.49,4.85,4
		c3,3.93,5.03,8.27,8.67,11.81c3.94,3.82,9.14,6.5,13.95,9.28c7.44,4.3,14.88,8.6,22.31,12.9c3.09,2.6,6.2,5.16,9.37,7.68
		c4.46,3.53,5.91,9.89,5.91,9.89s7.75-26.45,3.27-30c-15.26-12.09-23.32-19.2-36.46-33.22c-12.69-13.54-23.34-28.12-34.41-42.74
		c-10.78-14.24-25.21-26.43-45.55-23.27c-9.94,1.55-18.69,6.77-26.85,11.91c-8.04,5.06-16.24,9.8-24.91,13.92
		c-19.23,9.14-43.58,18.14-65.56,18.35c-11.8,0.11-19.2-4.77-28.91-9.82c-16.1-8.38-32.46-16.41-47.91-25.79
		c17.82-0.21,34.93-5.48,50.65-12.89c7.86-3.71,15.4-7.95,22.8-12.37c10.3-6.15,18.74-12.33,30.89-15.34
		c17.51-4.35,34.03-8.2,49-18.12c16.74-11.09,31.77-24.48,47.22-37.01c8.17-6.63,16.33-13.26,24.43-19.97
		c15.26-9.71,30.1-19.99,44.15-31.12c2.95,2.47,6.64,6.9,10.4,8.1c6.7,2.13,12.96,5.98,8.53,13.34
		c-4.15,6.89-10.56,11.77-12.58,19.76c-3.72,14.71,3.42,60.3,3.42,60.3s5.67-5.32,9.98-11.04c2.43-3.23,4.96-6.78,8.54-9.04
		c2.28-1.44,7.01-2.93,9.27-0.51c1.67,1.79,0.86,5.63,0.93,7.79c0.12,3.52,0.51,7.14,2.78,10.1c2.23,2.9,20.89,13.7,20.89,13.7
		s-4.37-9-4.27-13.04c0.07-2.75,4.89-3.19,7.43-4.65c3.61-2.07,7.34-3.91,11.16-5.56c0.56,0.18,1.17,0.32,1.83,0.38
		c14.56,1.4,23.36,16.13,32.7,24.71c10.97,10.07,24.72,14.7,39.89,16.43c14.16,1.61,28.49,0.53,42.64,2.12
		c7.82,0.88,15.83,2.5,22.79,6.03c3.51,1.78,16.25,17.86,9.53,21.59c-41.46,22.97-75.48,40.52-116.94,63.48
		c29.99,6.33,59.31-10.47,89.27-16.9c9.73-2.09,20-3.18,28.53-7.95c6.65-3.72,11.68-9.37,17.06-14.53
		c13.22-12.7,30.98-23.4,50.08-22.07c-3.43,5.32-6.85,10.63-10.28,15.95c-1.1,1.7-5.33,5.04-5.34,7.02c-0.01,4.5,4.37,13,4.37,13
		s19.37-4.99,22.29-1.37c3.61,4.49,8.27,22.37,8.27,22.37s5.44-8.01,8.5-8.44c11.77-1.66,38.43,15.44,38.43,15.44
		s10.64-5.36,18.78-5.2c10.02,0.19,19.27,4.67,28.17,8.89c48.76,23.13,100.05,41.77,152.85,55.55c4.32,1.13,9.38,2.12,12.98-0.36
		c4.29-2.94,3.71-9.39,0.25-13.14C1558.22,352.16,1556.43,350.94,1554.46,349.94z M1160.3,187.76c-2.89,0.28-6.84,10.24-6.84,10.24
		s-6.29-15.37-6.71-17.54c-1.18-6.07-2.18-11.83-6.24-16.95c-0.83-1.05-1.75-2.02-2.7-2.94c14.25,6.98,28.34,14.49,39.44,25.35
		c1.03,1.01,2.02,2.05,2.98,3.11C1173.73,187.59,1166.92,187.13,1160.3,187.76z"/>
	<path class="st0" d="M213.99,312.34c-3.84-1.49-4.63-3.59-4.69-7.44c-0.13-9.39,4.38-18.55,9.97-26.19
		c5.75-7.87,7.64-25.87,5.37-35.7c-1.89-8.18-10.33,13.81-10.33,13.81s-8.39,19.3-15.65,23.23c-7.22,3.9-12.04,12.4-13.42,19.77
		c-1.32,7.09,1.56,14.15-5.8,18.79c-5.87,3.7-13.11,4.79-19.64,7.12c-7.56,2.69-14.26,6.43-18.38,13.05
		c-4.25,6.83-15,19.23-15,19.23c7.17-3.1,14.43-6.04,21.75-8.83c5.58-2.13,11.2-4.19,16.93-5.94c9.06-2.76,17.18-2.47,26.56-1.2
		c4.5,0.61-0.85,15.97-0.85,15.97s15.11-10.34,16.82-12.55c3.51-4.57,7.02-9.14,10.52-13.71c2.75-3.58,6.1-7.17,4.81-11.86
		C221.84,315.77,217.87,313.84,213.99,312.34z"/>
	<path class="st0" d="M366.74,285.73c-0.2-3.75-7.85-15.73-7.85-15.73s-7.06,14.21-10.43,16.18c-6.18,3.61-12.71,6.89-19.02,10.33
		c-6.46,3.53-12.84,7.23-18.61,11.67c-34.89,26.81-3.59,11.97,3.58,12.11c1.33,0.03,2.9,0.19,4.51,0.33
		c-4.54,3.27-10.6,4.46-15.7,6.78c-11.72,5.35-29.46,44.6-29.46,44.6s16.63-7.26,21.78-11.48c8.08-6.62,58.99-1.52,58.99-1.52
		s-5.36-3.41,0.82-13.5c2.82-4.62,2.73-9.78,1.93-14.85c-0.85-5.39-1.1-9.76,0.69-15C361.37,305.63,367.34,296.58,366.74,285.73z"/>
	<path class="st0" d="M775.82,374c-4.94-28.5-59.18-50.24-84.18-55.35c-31.27-6.39-110.1-37.65-110.1-37.65s6.42,5.42,10.07,11.86
		c1.52,2.68-3.4,4.74-5.52,4.97c-5.4,0.58-11.09-1.63-16.08-3.27c-10.84-3.56-21.19-8.14-31.13-13.44
		c-7.91-4.22-16.28-2.12-16.28-2.12c10.5,10.96,21.77,21,31.79,32.38c3.09,3.51,6.03,7.29,10.42,9.54
		c8.23,4.23,19.86,2.51,28.91,3.42c21.07,2.14,41.7,7.76,61.94,13.33c6.67,1.84,14.87,3.98,19.19,9.4c2.15,2.7,2.45,6.13,4.83,8.73
		c2.93,3.2,6.79,3.99,11.11,4.51c15.69,1.87,31.27,4.47,46.77,7.37C740.62,368.27,775.83,374.03,775.82,374z"/>
	<path class="st0" d="M975.55,124c0,0-25.28,15.38-25.71,18.25c-0.76,5.04-6.64,7.35-10.75,10.04c-5.46,3.57-10.64,7.79-11.96,14.12
		c-0.75,3.62-2.89,8.59-2.89,8.59s17.76-1.55,20.51,2.76c1.23,1.94,1.41,13.01,5.69,22.24c5.04,10.88,14.19,20,14.19,20
		s-3.46-22.06-0.39-27.31c4.27-7.3,2.78-14.68,2.27-22.59c-0.59-9.15-0.14-18.28,1.16-27.36C968.49,137.07,975.55,124,975.55,124z"
		/>
	<path class="st0" d="M1145.93,239.76c-7.66-3.18-15.03-2.68-23.41-3.88c-5.96-0.86-11.26-3.82-16.53-6.51
		c-17.99-9.14-34.65-11.08-54.55-13.4c-15.17-1.77-32.21-5.49-39.17-19.47c-1.94-3.89-8.17-4.02-11.14-1.32
		c-2.41,2.19-17.88,7.79-17.94,7.81c-0.55,0.21,8.21,7.85,8.96,8.42c4.32,3.32,11.61,3.8,14.44,7.9c1.67,2.42,2.31,5.29,3.23,8.03
		c2.05,6.11,8.29,38.65,8.29,38.65s12.06-11.42,16.03-4.6c4.13,7.09,3.54,15.36,4.52,23.14c1.55,12.24,38.38,42.46,38.38,42.46
		c-4.09-6.31-6.7-11.71-6.24-19.15c0.45-7.32,1.14-15.09,5.63-21.39c6.21-8.71,17.88-12.64,25.58-20.15
		c7.05-6.88,16.4-11.86,26.14-15.16c8.26-2.79,30.75,0.84,30.75,0.84c-2.63-4.46-6.3-9.04-11.25-11.46
		C1147.08,240.26,1146.5,240,1145.93,239.76z"/>
	<path class="st0" d="M1190.12,311.48c-7.38,4.07-15.82,4.78-24.21,5.66c-9.21,0.97-17.76,2.45-26.29,5.89
		c-8,3.22-15.5,7.66-24.03,9.66c-9.08,2.13-42.9,16.31-42.9,16.31s15.1,3.34,23.24-0.43c4.25-1.97,9.09-1.66,13.71-2
		c4.15-0.3,8.25-0.86,12.23-2.01c4.29-1.24,8.34-2.96,12.35-4.78c0.17-0.03,0.33-0.05,0.5-0.09c12.53-2.71,25.58-1.7,38.16-4.22
		c10.84-2.17,49.33-31.48,49.33-31.48S1195.82,308.33,1190.12,311.48z"/>
</g>
</svg>
