<?xml version="1.0" encoding="utf-8"?>
<!-- Generator: Adobe Illustrator 25.1.0, SVG Export Plug-In . SVG Version: 6.00 Build 0)  -->
<svg version="1.1" id="Layer_1" xmlns="http://www.w3.org/2000/svg" xmlns:xlink="http://www.w3.org/1999/xlink" x="0px" y="0px"
	 viewBox="0 0 956.27 1139.51" style="enable-background:new 0 0 956.27 1139.51;" xml:space="preserve">
<style type="text/css">
	.st0{fill:#186634;}
	.st1{fill:none;stroke:#186634;stroke-width:7;stroke-linecap:round;stroke-miterlimit:10;}
	.st2{fill:none;stroke:#186634;stroke-width:6;stroke-linecap:round;stroke-miterlimit:10;}
	.st3{fill:none;stroke:#186634;stroke-width:5;stroke-linecap:round;stroke-miterlimit:10;}
	.st4{fill:#5D9D43;}
	.st5{fill:none;stroke:#5D9D43;stroke-width:7;stroke-linecap:round;stroke-miterlimit:10;}
	.st6{fill:none;stroke:#5D9D43;stroke-width:6;stroke-linecap:round;stroke-miterlimit:10;}
	.st7{fill:none;stroke:#5D9D43;stroke-width:5;stroke-linecap:round;stroke-miterlimit:10;}
	.st8{fill:none;stroke:#186634;stroke-width:9.4055;stroke-linecap:round;stroke-miterlimit:10;}
	.st9{fill:none;stroke:#186634;stroke-width:8.0618;stroke-linecap:round;stroke-miterlimit:10;}
	.st10{fill:none;stroke:#186634;stroke-width:6.7182;stroke-linecap:round;stroke-miterlimit:10;}
	.st11{fill:none;stroke:#186634;stroke-width:7.4463;stroke-linecap:round;stroke-miterlimit:10;}
	.st12{fill:none;stroke:#186634;stroke-width:6.3825;stroke-linecap:round;stroke-miterlimit:10;}
	.st13{fill:none;stroke:#186634;stroke-width:5.3188;stroke-linecap:round;stroke-miterlimit:10;}
	.st14{fill:none;stroke:#186634;stroke-width:7.6734;stroke-linecap:round;stroke-miterlimit:10;}
	.st15{fill:none;stroke:#186634;stroke-width:6.5772;stroke-linecap:round;stroke-miterlimit:10;}
	.st16{fill:none;stroke:#186634;stroke-width:5.481;stroke-linecap:round;stroke-miterlimit:10;}
	.st17{fill:none;stroke:#186634;stroke-width:10.1617;stroke-linecap:round;stroke-miterlimit:10;}
	.st18{fill:none;stroke:#186634;stroke-width:8.71;stroke-linecap:round;stroke-miterlimit:10;}
	.st19{fill:none;stroke:#186634;stroke-width:7.2583;stroke-linecap:round;stroke-miterlimit:10;}
	.st20{fill:none;stroke:#5D9D43;stroke-width:7.5041;stroke-linecap:round;stroke-miterlimit:10;}
	.st21{fill:none;stroke:#5D9D43;stroke-width:6.432;stroke-linecap:round;stroke-miterlimit:10;}
	.st22{fill:none;stroke:#5D9D43;stroke-width:5.36;stroke-linecap:round;stroke-miterlimit:10;}
	.st23{fill:#A0C36E;}
	.st24{fill:none;stroke:#A0C36E;stroke-width:7;stroke-linecap:round;stroke-miterlimit:10;}
	.st25{fill:none;stroke:#A0C36E;stroke-width:6;stroke-linecap:round;stroke-miterlimit:10;}
	.st26{fill:none;stroke:#A0C36E;stroke-width:5;stroke-linecap:round;stroke-miterlimit:10;}
</style>
<g>
	<g>
		<path class="st0" d="M496.75,250.73c-0.11,55.07,0.48,110.14,1.24,165.22l2.2,165.22l2.2,165.22l2.47,165.22
			c0.09,5.89-4.61,10.73-10.5,10.82s-10.73-4.61-10.82-10.5c0-0.09,0-0.23,0-0.32l2.47-165.22l2.2-165.22l2.2-165.22
			c0.76-55.07,1.35-110.14,1.24-165.22c0-1.41,1.13-2.55,2.54-2.55c1.41,0,2.55,1.13,2.55,2.54V250.73z"/>
	</g>
	<g>
		<path class="st14" d="M494.2,789.55c0,0-129.52,3.12-176.09-68.64"/>
		<path class="st14" d="M294.08,728.72c0,0,16.32,23.65,46.84,17.29"/>
		<path class="st14" d="M303.85,755.25c0,0,35.08,22.29,59.6,5.68"/>
		<path class="st14" d="M391.05,773.04c-44.24,33.41-61.66,7.15-61.66,7.15"/>
		<path class="st14" d="M414.18,779.95c0,0-39.62,16.3-58.51,1.57"/>
		<path class="st14" d="M473.6,720.92c0,0-15.77,30.53,0,69.08c0,0-30.82,25.35-56.68,4.19"/>
		<path class="st14" d="M448.81,785.63c-6.76-39.8,12.77-72.51,12.77-72.51"/>
		<path class="st14" d="M442.77,708.44c0,0-18.05,35.84,0,77.19c0,0-23.86,30.44-51.73,10.16"/>
		<path class="st14" d="M432.02,783.82c-34.29-11.05-33.53-45.91-33.53-45.91"/>
		<path class="st14" d="M422.52,720.92c0,0-10.41,22.91,0.43,59.03"/>
		<path class="st14" d="M406.16,713.12c0,0-4.19,48.54,19.92,68.4"/>
		<path class="st14" d="M381.96,737.9c0,0,13.07,46.35,76.76,49.78"/>
		<path class="st14" d="M363.45,694.4c0,0-19.79,15.62-7.77,60.85"/>
		<path class="st14" d="M384.93,708.44c0,0-20.18,30.92,0,62.34"/>
		<path class="st14" d="M363.45,720.92c0,0-4.74,29.32,17,46.16"/>
		<path class="st14" d="M340.92,694.4c0,0-15.16,27.28,4.3,54.98"/>
		<path class="st14" d="M494.2,789.55c0,0,129.52,3.12,176.09-68.64"/>
		<path class="st14" d="M694.33,728.72c0,0-16.32,23.65-46.84,17.29"/>
		<path class="st14" d="M684.56,755.25c0,0-35.08,22.29-59.6,5.68"/>
		<path class="st14" d="M597.36,773.04c44.24,33.41,61.66,7.15,61.66,7.15"/>
		<path class="st14" d="M574.23,779.95c0,0,39.62,16.3,58.51,1.57"/>
		<path class="st14" d="M514.81,720.92c0,0,15.77,30.53,0,69.08c0,0,30.82,25.35,56.68,4.19"/>
		<path class="st14" d="M539.6,785.63c6.76-39.8-12.77-72.51-12.77-72.51"/>
		<path class="st14" d="M545.64,708.44c0,0,18.05,35.84,0,77.19c0,0,23.86,30.44,51.73,10.16"/>
		<path class="st14" d="M556.39,783.82c34.29-11.05,33.53-45.91,33.53-45.91"/>
		<path class="st14" d="M565.89,720.92c0,0,10.41,22.91-0.43,59.03"/>
		<path class="st14" d="M582.25,713.12c0,0,4.19,48.54-19.92,68.4"/>
		<path class="st14" d="M606.45,737.9c0,0-13.07,46.35-76.76,49.78"/>
		<path class="st14" d="M624.96,694.4c0,0,19.79,15.62,7.77,60.85"/>
		<path class="st14" d="M603.48,708.44c0,0,20.18,30.92,0,62.34"/>
		<path class="st14" d="M624.96,720.92c0,0,4.74,29.32-17,46.16"/>
		<path class="st14" d="M647.48,694.4c0,0,15.16,27.28-4.3,54.98"/>
	</g>
	<g>
		<path class="st14" d="M494.2,669.42c0,0-113.96,3.12-154.94-68.64"/>
		<path class="st14" d="M318.12,608.58c0,0,14.36,23.65,41.21,17.29"/>
		<path class="st14" d="M326.71,635.11c0,0,30.86,22.29,52.44,5.68"/>
		<path class="st14" d="M403.44,652.91c-38.93,33.41-54.26,7.15-54.26,7.15"/>
		<path class="st14" d="M423.79,659.81c0,0-34.87,16.3-51.48,1.57"/>
		<path class="st14" d="M476.07,600.78c0,0-13.88,30.53,0,69.08c0,0-27.12,25.35-49.88,4.19"/>
		<path class="st14" d="M454.26,665.5c-5.95-39.8,11.24-72.51,11.24-72.51"/>
		<path class="st14" d="M448.95,588.3c0,0-15.88,35.84,0,77.19c0,0-21,30.44-45.51,10.16"/>
		<path class="st14" d="M439.49,663.68c-30.17-11.05-29.5-45.91-29.5-45.91"/>
		<path class="st14" d="M431.13,600.78c0,0-9.16,22.91,0.38,59.03"/>
		<path class="st14" d="M416.74,592.98c0,0-3.68,48.54,17.53,68.4"/>
		<path class="st14" d="M395.44,617.77c0,0,11.5,46.35,67.54,49.78"/>
		<path class="st14" d="M379.15,574.26c0,0-17.41,15.62-6.84,60.85"/>
		<path class="st14" d="M398.05,588.3c0,0-17.76,30.92,0,62.34"/>
		<path class="st14" d="M379.15,600.78c0,0-4.17,29.32,14.95,46.16"/>
		<path class="st14" d="M359.33,574.26c0,0-13.34,27.28,3.78,54.98"/>
		<path class="st14" d="M494.2,669.42c0,0,113.96,3.12,154.94-68.64"/>
		<path class="st14" d="M670.29,608.58c0,0-14.36,23.65-41.21,17.29"/>
		<path class="st14" d="M661.7,635.11c0,0-30.86,22.29-52.44,5.68"/>
		<path class="st14" d="M584.97,652.91c38.93,33.41,54.26,7.15,54.26,7.15"/>
		<path class="st14" d="M564.62,659.81c0,0,34.87,16.3,51.48,1.57"/>
		<path class="st14" d="M512.34,600.78c0,0,13.88,30.53,0,69.08c0,0,27.12,25.35,49.88,4.19"/>
		<path class="st14" d="M534.15,665.5c5.95-39.8-11.24-72.51-11.24-72.51"/>
		<path class="st14" d="M539.46,588.3c0,0,15.88,35.84,0,77.19c0,0,21,30.44,45.51,10.16"/>
		<path class="st14" d="M548.92,663.68c30.17-11.05,29.5-45.91,29.5-45.91"/>
		<path class="st14" d="M557.28,600.78c0,0,9.16,22.91-0.38,59.03"/>
		<path class="st14" d="M571.67,592.98c0,0,3.68,48.54-17.53,68.4"/>
		<path class="st14" d="M592.97,617.77c0,0-11.5,46.35-67.54,49.78"/>
		<path class="st14" d="M609.26,574.26c0,0,17.41,15.62,6.84,60.85"/>
		<path class="st14" d="M590.36,588.3c0,0,17.76,30.92,0,62.34"/>
		<path class="st14" d="M609.26,600.78c0,0,4.17,29.32-14.95,46.16"/>
		<path class="st14" d="M629.08,574.26c0,0,13.34,27.28-3.78,54.98"/>
	</g>
	<g>
		<path class="st15" d="M494.2,549.22c0,0-87.29,2.66-118.67-58.51"/>
		<path class="st15" d="M359.33,497.36c0,0,11,20.16,31.57,14.74"/>
		<path class="st15" d="M365.91,519.97c0,0,23.64,19,40.17,4.84"/>
		<path class="st15" d="M424.68,535.14c-29.82,28.48-41.56,6.1-41.56,6.1"/>
		<path class="st15" d="M440.27,541.03c0,0-26.7,13.89-39.43,1.34"/>
		<path class="st15" d="M480.32,490.71c0,0-10.63,26.03,0,58.89c0,0-20.77,21.61-38.2,3.58"/>
		<path class="st15" d="M463.61,545.87c-4.56-33.93,8.61-61.81,8.61-61.81"/>
		<path class="st15" d="M459.54,480.07c0,0-12.17,30.55,0,65.8c0,0-16.08,25.95-34.86,8.66"/>
		<path class="st15" d="M452.29,544.33c-23.11-9.42-22.6-39.14-22.6-39.14"/>
		<path class="st15" d="M445.89,490.71c0,0-7.02,19.53,0.29,50.32"/>
		<path class="st15" d="M434.87,484.06c0,0-2.82,41.38,13.43,58.31"/>
		<path class="st15" d="M418.56,505.19c0,0,8.81,39.51,51.74,42.43"/>
		<path class="st15" d="M406.08,468.1c0,0-13.34,13.31-5.24,51.87"/>
		<path class="st15" d="M420.56,480.07c0,0-13.6,26.35,0,53.14"/>
		<path class="st15" d="M406.08,490.71c0,0-3.19,24.99,11.45,39.35"/>
		<path class="st15" d="M390.9,468.1c0,0-10.22,23.25,2.9,46.86"/>
		<path class="st15" d="M494.2,549.22c0,0,87.29,2.66,118.67-58.51"/>
		<path class="st15" d="M629.08,497.36c0,0-11,20.16-31.57,14.74"/>
		<path class="st15" d="M622.5,519.97c0,0-23.64,19-40.17,4.84"/>
		<path class="st15" d="M563.73,535.14c29.82,28.48,41.56,6.1,41.56,6.1"/>
		<path class="st15" d="M548.14,541.03c0,0,26.7,13.89,39.43,1.34"/>
		<path class="st15" d="M508.09,490.71c0,0,10.63,26.03,0,58.89c0,0,20.77,21.61,38.2,3.58"/>
		<path class="st15" d="M524.8,545.87c4.56-33.93-8.61-61.81-8.61-61.81"/>
		<path class="st15" d="M528.87,480.07c0,0,12.17,30.55,0,65.8c0,0,16.08,25.95,34.86,8.66"/>
		<path class="st15" d="M536.12,544.33c23.11-9.42,22.6-39.14,22.6-39.14"/>
		<path class="st15" d="M542.52,490.71c0,0,7.02,19.53-0.29,50.32"/>
		<path class="st15" d="M553.54,484.06c0,0,2.82,41.38-13.43,58.31"/>
		<path class="st15" d="M569.85,505.19c0,0-8.81,39.51-51.74,42.43"/>
		<path class="st15" d="M582.33,468.1c0,0,13.34,13.31,5.24,51.87"/>
		<path class="st15" d="M567.85,480.07c0,0,13.6,26.35,0,53.14"/>
		<path class="st15" d="M582.33,490.71c0,0,3.19,24.99-11.45,39.35"/>
		<path class="st15" d="M597.51,468.1c0,0,10.22,23.25-2.9,46.86"/>
	</g>
	<g>
		<path class="st16" d="M494.2,444.5c0,0-64.98,2.32-88.35-51.03"/>
		<path class="st16" d="M393.8,399.26c0,0,8.19,17.59,23.5,12.85"/>
		<path class="st16" d="M398.7,418.99c0,0,17.6,16.57,29.9,4.22"/>
		<path class="st16" d="M442.45,432.22c-22.2,24.84-30.94,5.32-30.94,5.32"/>
		<path class="st16" d="M454.06,437.36c0,0-19.88,12.12-29.36,1.17"/>
		<path class="st16" d="M483.86,393.46c0,0-7.91,22.7,0,51.37c0,0-15.46,18.85-28.44,3.12"/>
		<path class="st16" d="M471.43,441.58c-3.39-29.59,6.41-53.92,6.41-53.92"/>
		<path class="st16" d="M468.4,384.18c0,0-9.06,26.64,0,57.4c0,0-11.97,22.63-25.95,7.55"/>
		<path class="st16" d="M463,440.23c-17.2-8.22-16.82-34.14-16.82-34.14"/>
		<path class="st16" d="M458.24,393.46c0,0-5.22,17.04,0.21,43.89"/>
		<path class="st16" d="M450.03,387.66c0,0-2.1,36.09,10,50.86"/>
		<path class="st16" d="M437.89,406.09c0,0,6.56,34.46,38.51,37.01"/>
		<path class="st16" d="M428.6,373.75c0,0-9.93,11.61-3.9,45.24"/>
		<path class="st16" d="M439.38,384.18c0,0-10.12,22.99,0,46.35"/>
		<path class="st16" d="M428.6,393.46c0,0-2.38,21.8,8.53,34.32"/>
		<path class="st16" d="M417.3,373.75c0,0-7.61,20.28,2.16,40.88"/>
		<path class="st16" d="M494.2,444.5c0,0,64.98,2.32,88.35-51.03"/>
		<path class="st16" d="M594.61,399.26c0,0-8.19,17.59-23.5,12.85"/>
		<path class="st16" d="M589.71,418.99c0,0-17.6,16.57-29.9,4.22"/>
		<path class="st16" d="M545.96,432.22c22.2,24.84,30.94,5.32,30.94,5.32"/>
		<path class="st16" d="M534.35,437.36c0,0,19.88,12.12,29.36,1.17"/>
		<path class="st16" d="M504.55,393.46c0,0,7.91,22.7,0,51.37c0,0,15.46,18.85,28.44,3.12"/>
		<path class="st16" d="M516.98,441.58c3.39-29.59-6.41-53.92-6.41-53.92"/>
		<path class="st16" d="M520.01,384.18c0,0,9.06,26.64,0,57.4c0,0,11.97,22.63,25.95,7.55"/>
		<path class="st16" d="M525.41,440.23c17.2-8.22,16.82-34.14,16.82-34.14"/>
		<path class="st16" d="M530.17,393.46c0,0,5.22,17.04-0.21,43.89"/>
		<path class="st16" d="M538.38,387.66c0,0,2.1,36.09-10,50.86"/>
		<path class="st16" d="M550.52,406.09c0,0-6.56,34.46-38.51,37.01"/>
		<path class="st16" d="M559.81,373.75c0,0,9.93,11.61,3.9,45.24"/>
		<path class="st16" d="M549.03,384.18c0,0,10.12,22.99,0,46.35"/>
		<path class="st16" d="M559.81,393.46c0,0,2.38,21.8-8.53,34.32"/>
		<path class="st16" d="M571.11,373.75c0,0,7.61,20.28-2.16,40.88"/>
	</g>
	<g>
		<path class="st14" d="M494.2,789.55c0,0-129.52,3.12-176.09-68.64"/>
		<path class="st14" d="M294.08,728.72c0,0,16.32,23.65,46.84,17.29"/>
		<path class="st14" d="M303.85,755.25c0,0,35.08,22.29,59.6,5.68"/>
		<path class="st14" d="M391.05,773.04c-44.24,33.41-61.66,7.15-61.66,7.15"/>
		<path class="st14" d="M414.18,779.95c0,0-39.62,16.3-58.51,1.57"/>
		<path class="st14" d="M473.6,720.92c0,0-15.77,30.53,0,69.08c0,0-30.82,25.35-56.68,4.19"/>
		<path class="st14" d="M448.81,785.63c-6.76-39.8,12.77-72.51,12.77-72.51"/>
		<path class="st14" d="M442.77,708.44c0,0-18.05,35.84,0,77.19c0,0-23.86,30.44-51.73,10.16"/>
		<path class="st14" d="M432.02,783.82c-34.29-11.05-33.53-45.91-33.53-45.91"/>
		<path class="st14" d="M422.52,720.92c0,0-10.41,22.91,0.43,59.03"/>
		<path class="st14" d="M406.16,713.12c0,0-4.19,48.54,19.92,68.4"/>
		<path class="st14" d="M381.96,737.9c0,0,13.07,46.35,76.76,49.78"/>
		<path class="st14" d="M363.45,694.4c0,0-19.79,15.62-7.77,60.85"/>
		<path class="st14" d="M384.93,708.44c0,0-20.18,30.92,0,62.34"/>
		<path class="st14" d="M363.45,720.92c0,0-4.74,29.32,17,46.16"/>
		<path class="st14" d="M340.92,694.4c0,0-15.16,27.28,4.3,54.98"/>
		<path class="st14" d="M494.2,789.55c0,0,129.52,3.12,176.09-68.64"/>
		<path class="st14" d="M694.33,728.72c0,0-16.32,23.65-46.84,17.29"/>
		<path class="st14" d="M684.56,755.25c0,0-35.08,22.29-59.6,5.68"/>
		<path class="st14" d="M597.36,773.04c44.24,33.41,61.66,7.15,61.66,7.15"/>
		<path class="st14" d="M574.23,779.95c0,0,39.62,16.3,58.51,1.57"/>
		<path class="st14" d="M514.81,720.92c0,0,15.77,30.53,0,69.08c0,0,30.82,25.35,56.68,4.19"/>
		<path class="st14" d="M539.6,785.63c6.76-39.8-12.77-72.51-12.77-72.51"/>
		<path class="st14" d="M545.64,708.44c0,0,18.05,35.84,0,77.19c0,0,23.86,30.44,51.73,10.16"/>
		<path class="st14" d="M556.39,783.82c34.29-11.05,33.53-45.91,33.53-45.91"/>
		<path class="st14" d="M565.89,720.92c0,0,10.41,22.91-0.43,59.03"/>
		<path class="st14" d="M582.25,713.12c0,0,4.19,48.54-19.92,68.4"/>
		<path class="st14" d="M606.45,737.9c0,0-13.07,46.35-76.76,49.78"/>
		<path class="st14" d="M624.96,694.4c0,0,19.79,15.62,7.77,60.85"/>
		<path class="st14" d="M603.48,708.44c0,0,20.18,30.92,0,62.34"/>
		<path class="st14" d="M624.96,720.92c0,0,4.74,29.32-17,46.16"/>
		<path class="st14" d="M647.48,694.4c0,0,15.16,27.28-4.3,54.98"/>
	</g>
	<g>
		<path class="st14" d="M494.2,669.42c0,0-113.96,3.12-154.94-68.64"/>
		<path class="st14" d="M318.12,608.58c0,0,14.36,23.65,41.21,17.29"/>
		<path class="st14" d="M326.71,635.11c0,0,30.86,22.29,52.44,5.68"/>
		<path class="st14" d="M403.44,652.91c-38.93,33.41-54.26,7.15-54.26,7.15"/>
		<path class="st14" d="M423.79,659.81c0,0-34.87,16.3-51.48,1.57"/>
		<path class="st14" d="M476.07,600.78c0,0-13.88,30.53,0,69.08c0,0-27.12,25.35-49.88,4.19"/>
		<path class="st14" d="M454.26,665.5c-5.95-39.8,11.24-72.51,11.24-72.51"/>
		<path class="st14" d="M448.95,588.3c0,0-15.88,35.84,0,77.19c0,0-21,30.44-45.51,10.16"/>
		<path class="st14" d="M439.49,663.68c-30.17-11.05-29.5-45.91-29.5-45.91"/>
		<path class="st14" d="M431.13,600.78c0,0-9.16,22.91,0.38,59.03"/>
		<path class="st14" d="M416.74,592.98c0,0-3.68,48.54,17.53,68.4"/>
		<path class="st14" d="M395.44,617.77c0,0,11.5,46.35,67.54,49.78"/>
		<path class="st14" d="M379.15,574.26c0,0-17.41,15.62-6.84,60.85"/>
		<path class="st14" d="M398.05,588.3c0,0-17.76,30.92,0,62.34"/>
		<path class="st14" d="M379.15,600.78c0,0-4.17,29.32,14.95,46.16"/>
		<path class="st14" d="M359.33,574.26c0,0-13.34,27.28,3.78,54.98"/>
		<path class="st14" d="M494.2,669.42c0,0,113.96,3.12,154.94-68.64"/>
		<path class="st14" d="M670.29,608.58c0,0-14.36,23.65-41.21,17.29"/>
		<path class="st14" d="M661.7,635.11c0,0-30.86,22.29-52.44,5.68"/>
		<path class="st14" d="M584.97,652.91c38.93,33.41,54.26,7.15,54.26,7.15"/>
		<path class="st14" d="M564.62,659.81c0,0,34.87,16.3,51.48,1.57"/>
		<path class="st14" d="M512.34,600.78c0,0,13.88,30.53,0,69.08c0,0,27.12,25.35,49.88,4.19"/>
		<path class="st14" d="M534.15,665.5c5.95-39.8-11.24-72.51-11.24-72.51"/>
		<path class="st14" d="M539.46,588.3c0,0,15.88,35.84,0,77.19c0,0,21,30.44,45.51,10.16"/>
		<path class="st14" d="M548.92,663.68c30.17-11.05,29.5-45.91,29.5-45.91"/>
		<path class="st14" d="M557.28,600.78c0,0,9.16,22.91-0.38,59.03"/>
		<path class="st14" d="M571.67,592.98c0,0,3.68,48.54-17.53,68.4"/>
		<path class="st14" d="M592.97,617.77c0,0-11.5,46.35-67.54,49.78"/>
		<path class="st14" d="M609.26,574.26c0,0,17.41,15.62,6.84,60.85"/>
		<path class="st14" d="M590.36,588.3c0,0,17.76,30.92,0,62.34"/>
		<path class="st14" d="M609.26,600.78c0,0,4.17,29.32-14.95,46.16"/>
		<path class="st14" d="M629.08,574.26c0,0,13.34,27.28-3.78,54.98"/>
	</g>
	<g>
		<path class="st15" d="M494.2,549.22c0,0-87.29,2.66-118.67-58.51"/>
		<path class="st15" d="M359.33,497.36c0,0,11,20.16,31.57,14.74"/>
		<path class="st15" d="M365.91,519.97c0,0,23.64,19,40.17,4.84"/>
		<path class="st15" d="M424.68,535.14c-29.82,28.48-41.56,6.1-41.56,6.1"/>
		<path class="st15" d="M440.27,541.03c0,0-26.7,13.89-39.43,1.34"/>
		<path class="st15" d="M480.32,490.71c0,0-10.63,26.03,0,58.89c0,0-20.77,21.61-38.2,3.58"/>
		<path class="st15" d="M463.61,545.87c-4.56-33.93,8.61-61.81,8.61-61.81"/>
		<path class="st15" d="M459.54,480.07c0,0-12.17,30.55,0,65.8c0,0-16.08,25.95-34.86,8.66"/>
		<path class="st15" d="M452.29,544.33c-23.11-9.42-22.6-39.14-22.6-39.14"/>
		<path class="st15" d="M445.89,490.71c0,0-7.02,19.53,0.29,50.32"/>
		<path class="st15" d="M434.87,484.06c0,0-2.82,41.38,13.43,58.31"/>
		<path class="st15" d="M418.56,505.19c0,0,8.81,39.51,51.74,42.43"/>
		<path class="st15" d="M406.08,468.1c0,0-13.34,13.31-5.24,51.87"/>
		<path class="st15" d="M420.56,480.07c0,0-13.6,26.35,0,53.14"/>
		<path class="st15" d="M406.08,490.71c0,0-3.19,24.99,11.45,39.35"/>
		<path class="st15" d="M390.9,468.1c0,0-10.22,23.25,2.9,46.86"/>
		<path class="st15" d="M494.2,549.22c0,0,87.29,2.66,118.67-58.51"/>
		<path class="st15" d="M629.08,497.36c0,0-11,20.16-31.57,14.74"/>
		<path class="st15" d="M622.5,519.97c0,0-23.64,19-40.17,4.84"/>
		<path class="st15" d="M563.73,535.14c29.82,28.48,41.56,6.1,41.56,6.1"/>
		<path class="st15" d="M548.14,541.03c0,0,26.7,13.89,39.43,1.34"/>
		<path class="st15" d="M508.09,490.71c0,0,10.63,26.03,0,58.89c0,0,20.77,21.61,38.2,3.58"/>
		<path class="st15" d="M524.8,545.87c4.56-33.93-8.61-61.81-8.61-61.81"/>
		<path class="st15" d="M528.87,480.07c0,0,12.17,30.55,0,65.8c0,0,16.08,25.95,34.86,8.66"/>
		<path class="st15" d="M536.12,544.33c23.11-9.42,22.6-39.14,22.6-39.14"/>
		<path class="st15" d="M542.52,490.71c0,0,7.02,19.53-0.29,50.32"/>
		<path class="st15" d="M553.54,484.06c0,0,2.82,41.38-13.43,58.31"/>
		<path class="st15" d="M569.85,505.19c0,0-8.81,39.51-51.74,42.43"/>
		<path class="st15" d="M582.33,468.1c0,0,13.34,13.31,5.24,51.87"/>
		<path class="st15" d="M567.85,480.07c0,0,13.6,26.35,0,53.14"/>
		<path class="st15" d="M582.33,490.71c0,0,3.19,24.99-11.45,39.35"/>
		<path class="st15" d="M597.51,468.1c0,0,10.22,23.25-2.9,46.86"/>
	</g>
	<g>
		<path class="st16" d="M494.2,444.5c0,0-64.98,2.32-88.35-51.03"/>
		<path class="st16" d="M393.8,399.26c0,0,8.19,17.59,23.5,12.85"/>
		<path class="st16" d="M398.7,418.99c0,0,17.6,16.57,29.9,4.22"/>
		<path class="st16" d="M442.45,432.22c-22.2,24.84-30.94,5.32-30.94,5.32"/>
		<path class="st16" d="M454.06,437.36c0,0-19.88,12.12-29.36,1.17"/>
		<path class="st16" d="M483.86,393.46c0,0-7.91,22.7,0,51.37c0,0-15.46,18.85-28.44,3.12"/>
		<path class="st16" d="M471.43,441.58c-3.39-29.59,6.41-53.92,6.41-53.92"/>
		<path class="st16" d="M468.4,384.18c0,0-9.06,26.64,0,57.4c0,0-11.97,22.63-25.95,7.55"/>
		<path class="st16" d="M463,440.23c-17.2-8.22-16.82-34.14-16.82-34.14"/>
		<path class="st16" d="M458.24,393.46c0,0-5.22,17.04,0.21,43.89"/>
		<path class="st16" d="M450.03,387.66c0,0-2.1,36.09,10,50.86"/>
		<path class="st16" d="M437.89,406.09c0,0,6.56,34.46,38.51,37.01"/>
		<path class="st16" d="M428.6,373.75c0,0-9.93,11.61-3.9,45.24"/>
		<path class="st16" d="M439.38,384.18c0,0-10.12,22.99,0,46.35"/>
		<path class="st16" d="M428.6,393.46c0,0-2.38,21.8,8.53,34.32"/>
		<path class="st16" d="M417.3,373.75c0,0-7.61,20.28,2.16,40.88"/>
		<path class="st16" d="M494.2,444.5c0,0,64.98,2.32,88.35-51.03"/>
		<path class="st16" d="M594.61,399.26c0,0-8.19,17.59-23.5,12.85"/>
		<path class="st16" d="M589.71,418.99c0,0-17.6,16.57-29.9,4.22"/>
		<path class="st16" d="M545.96,432.22c22.2,24.84,30.94,5.32,30.94,5.32"/>
		<path class="st16" d="M534.35,437.36c0,0,19.88,12.12,29.36,1.17"/>
		<path class="st16" d="M504.55,393.46c0,0,7.91,22.7,0,51.37c0,0,15.46,18.85,28.44,3.12"/>
		<path class="st16" d="M516.98,441.58c3.39-29.59-6.41-53.92-6.41-53.92"/>
		<path class="st16" d="M520.01,384.18c0,0,9.06,26.64,0,57.4c0,0,11.97,22.63,25.95,7.55"/>
		<path class="st16" d="M525.41,440.23c17.2-8.22,16.82-34.14,16.82-34.14"/>
		<path class="st16" d="M530.17,393.46c0,0,5.22,17.04-0.21,43.89"/>
		<path class="st16" d="M538.38,387.66c0,0,2.1,36.09-10,50.86"/>
		<path class="st16" d="M550.52,406.09c0,0-6.56,34.46-38.51,37.01"/>
		<path class="st16" d="M559.81,373.75c0,0,9.93,11.61,3.9,45.24"/>
		<path class="st16" d="M549.03,384.18c0,0,10.12,22.99,0,46.35"/>
		<path class="st16" d="M559.81,393.46c0,0,2.38,21.8-8.53,34.32"/>
		<path class="st16" d="M571.11,373.75c0,0,7.61,20.28-2.16,40.88"/>
	</g>
	<g>
		<path class="st16" d="M494.2,352.87c0,0-46.9,1.67-63.76-36.83"/>
		<path class="st16" d="M421.74,320.23c0,0,5.91,12.69,16.96,9.28"/>
		<path class="st16" d="M425.28,334.46c0,0,12.7,11.96,21.58,3.05"/>
		<path class="st16" d="M456.85,344.01c-16.02,17.93-22.33,3.84-22.33,3.84"/>
		<path class="st16" d="M465.23,347.72c0,0-14.35,8.75-21.19,0.84"/>
		<path class="st16" d="M486.74,316.04c0,0-5.71,16.39,0,37.07c0,0-11.16,13.6-20.53,2.25"/>
		<path class="st16" d="M477.77,350.77c-2.45-21.36,4.62-38.91,4.62-38.91"/>
		<path class="st16" d="M475.58,309.34c0,0-6.54,19.23,0,41.42c0,0-8.64,16.33-18.73,5.45"/>
		<path class="st16" d="M471.69,349.79c-12.41-5.93-12.14-24.64-12.14-24.64"/>
		<path class="st16" d="M468.25,316.04c0,0-3.77,12.3,0.15,31.68"/>
		<path class="st16" d="M462.32,311.86c0,0-1.52,26.05,7.21,36.71"/>
		<path class="st16" d="M453.56,325.16c0,0,4.73,24.87,27.8,26.71"/>
		<path class="st16" d="M446.86,301.81c0,0-7.17,8.38-2.82,32.65"/>
		<path class="st16" d="M454.64,309.34c0,0-7.31,16.59,0,33.45"/>
		<path class="st16" d="M446.86,316.04c0,0-1.72,15.73,6.15,24.77"/>
		<path class="st16" d="M438.7,301.81c0,0-5.49,14.64,1.56,29.5"/>
		<path class="st16" d="M494.2,352.87c0,0,46.9,1.67,63.76-36.83"/>
		<path class="st16" d="M566.67,320.23c0,0-5.91,12.69-16.96,9.28"/>
		<path class="st16" d="M563.13,334.46c0,0-12.7,11.96-21.58,3.05"/>
		<path class="st16" d="M531.56,344.01c16.02,17.93,22.33,3.84,22.33,3.84"/>
		<path class="st16" d="M523.18,347.72c0,0,14.35,8.75,21.19,0.84"/>
		<path class="st16" d="M501.67,316.04c0,0,5.71,16.39,0,37.07c0,0,11.16,13.6,20.53,2.25"/>
		<path class="st16" d="M510.64,350.77c2.45-21.36-4.62-38.91-4.62-38.91"/>
		<path class="st16" d="M512.83,309.34c0,0,6.54,19.23,0,41.42c0,0,8.64,16.33,18.73,5.45"/>
		<path class="st16" d="M516.72,349.79c12.41-5.93,12.14-24.64,12.14-24.64"/>
		<path class="st16" d="M520.16,316.04c0,0,3.77,12.3-0.15,31.68"/>
		<path class="st16" d="M526.09,311.86c0,0,1.52,26.05-7.21,36.71"/>
		<path class="st16" d="M534.85,325.16c0,0-4.73,24.87-27.8,26.71"/>
		<path class="st16" d="M541.55,301.81c0,0,7.17,8.38,2.82,32.65"/>
		<path class="st16" d="M533.77,309.34c0,0,7.31,16.59,0,33.45"/>
		<path class="st16" d="M541.55,316.04c0,0,1.72,15.73-6.15,24.77"/>
		<path class="st16" d="M549.71,301.81c0,0,5.49,14.64-1.56,29.5"/>
	</g>
	<path class="st16" d="M479.2,253.46c0,0,8.66,23.88,15.01,29.39"/>
	<path class="st16" d="M471.69,274.48c0,0,6.6,27.37,22.52,32.44"/>
	<path class="st16" d="M509.21,253.46c0,0-8.66,23.88-15.01,29.39"/>
	<path class="st16" d="M516.72,274.48c0,0-6.6,27.37-22.52,32.44"/>
</g>
<g>
	<g>
		<path class="st0" d="M791.54,42.34c-0.15,73.63,0.64,147.26,1.64,220.89l2.91,220.89L799.01,705l3.27,220.89
			c0.12,7.79-6.11,14.21-13.9,14.32c-7.79,0.12-14.21-6.11-14.32-13.9c0-0.12,0-0.3,0-0.42L777.33,705l2.91-220.89l2.91-220.89
			c1-73.63,1.79-147.26,1.64-220.89c0-1.86,1.5-3.38,3.37-3.38c1.86,0,3.38,1.5,3.38,3.37V42.34z"/>
	</g>
	<g>
		<path class="st17" d="M788.17,762.73c0,0-169.89,4.17-230.98-91.76"/>
		<path class="st17" d="M525.66,681.39c0,0,21.41,31.62,61.44,23.11"/>
		<path class="st17" d="M538.47,716.86c0,0,46.01,29.8,78.18,7.6"/>
		<path class="st17" d="M652.85,740.65c-58.03,44.66-80.88,9.56-80.88,9.56"/>
		<path class="st17" d="M683.2,749.89c0,0-51.98,21.79-76.75,2.1"/>
		<path class="st17" d="M761.13,670.96c0,0-20.69,40.82,0,92.36c0,0-40.43,33.89-74.35,5.61"/>
		<path class="st17" d="M728.62,757.48c-8.87-53.21,16.75-96.95,16.75-96.95"/>
		<path class="st17" d="M720.7,654.28c0,0-23.68,47.91,0,103.2c0,0-31.3,40.7-67.85,13.58"/>
		<path class="st17" d="M706.59,755.06c-44.97-14.78-43.98-61.38-43.98-61.38"/>
		<path class="st17" d="M694.14,670.96c0,0-13.66,30.63,0.56,78.92"/>
		<path class="st17" d="M672.68,660.54c0,0-5.49,64.89,26.13,91.45"/>
		<path class="st17" d="M640.93,693.67c0,0,17.15,61.97,100.69,66.55"/>
		<path class="st17" d="M616.65,635.51c0,0-25.96,20.88-10.2,81.35"/>
		<path class="st17" d="M644.83,654.28c0,0-26.47,41.33,0,83.34"/>
		<path class="st17" d="M616.65,670.96c0,0-6.22,39.2,22.29,61.71"/>
		<path class="st17" d="M587.1,635.51c0,0-19.89,36.47,5.64,73.5"/>
		<path class="st17" d="M788.17,762.73c0,0,169.89,4.17,230.98-91.76"/>
		<path class="st17" d="M1037.86,716.86c0,0-46.01,29.8-78.18,7.6"/>
		<path class="st17" d="M923.48,740.65c58.03,44.66,80.88,9.56,80.88,9.56"/>
		<path class="st17" d="M893.13,749.89c0,0,51.98,21.79,76.75,2.1"/>
		<path class="st17" d="M815.2,670.96c0,0,20.69,40.82,0,92.36c0,0,40.43,33.89,74.35,5.61"/>
		<path class="st17" d="M847.71,757.48c8.87-53.21-16.75-96.95-16.75-96.95"/>
		<path class="st17" d="M855.63,654.28c0,0,23.68,47.91,0,103.2c0,0,31.3,40.7,67.85,13.58"/>
		<path class="st17" d="M869.74,755.06c44.97-14.78,43.98-61.38,43.98-61.38"/>
		<path class="st17" d="M882.2,670.96c0,0,13.66,30.63-0.56,78.92"/>
		<path class="st17" d="M903.65,660.54c0,0,5.49,64.89-26.13,91.45"/>
		<path class="st17" d="M935.4,693.67c0,0-17.15,61.97-100.69,66.55"/>
		<path class="st17" d="M959.68,635.51c0,0,25.96,20.88,10.2,81.35"/>
		<path class="st17" d="M931.51,654.28c0,0,26.47,41.33,0,83.34"/>
		<path class="st17" d="M959.68,670.96c0,0,6.22,39.2-22.29,61.71"/>
	</g>
	<g>
		<path class="st17" d="M788.17,602.11c0,0-149.49,4.17-203.23-91.76"/>
		<path class="st17" d="M557.19,520.77c0,0,18.83,31.62,54.06,23.11"/>
		<path class="st17" d="M568.46,556.24c0,0,40.49,29.8,68.79,7.6"/>
		<path class="st17" d="M669.1,580.03c-51.06,44.66-71.17,9.56-71.17,9.56"/>
		<path class="st17" d="M695.81,589.27c0,0-45.73,21.79-67.53,2.1"/>
		<path class="st17" d="M764.38,510.35c0,0-18.2,40.82,0,92.36c0,0-35.57,33.89-65.42,5.61"/>
		<path class="st17" d="M735.77,596.87c-7.8-53.21,14.74-96.95,14.74-96.95"/>
		<path class="st17" d="M728.8,493.66c0,0-20.84,47.91,0,103.2c0,0-27.54,40.7-59.7,13.58"/>
		<path class="st17" d="M716.39,594.44c-39.57-14.78-38.7-61.38-38.7-61.38"/>
		<path class="st17" d="M705.43,510.35c0,0-12.02,30.63,0.49,78.92"/>
		<path class="st17" d="M686.55,499.92c0,0-4.83,64.89,23,91.45"/>
		<path class="st17" d="M658.62,533.06c0,0,15.09,61.97,88.6,66.55"/>
		<path class="st17" d="M637.25,474.89c0,0-22.84,20.88-8.97,81.35"/>
		<path class="st17" d="M662.04,493.66c0,0-23.29,41.33,0,83.34"/>
		<path class="st17" d="M637.25,510.35c0,0-5.47,39.2,19.62,61.71"/>
		<path class="st17" d="M611.25,474.89c0,0-17.5,36.47,4.96,73.5"/>
		<path class="st17" d="M788.17,602.11c0,0,149.49,4.17,203.23-91.76"/>
		<path class="st17" d="M1007.87,556.24c0,0-40.49,29.8-68.79,7.6"/>
		<path class="st17" d="M907.23,580.03c51.06,44.66,71.17,9.56,71.17,9.56"/>
		<path class="st17" d="M880.53,589.27c0,0,45.73,21.79,67.53,2.1"/>
		<path class="st17" d="M811.95,510.35c0,0,18.2,40.82,0,92.36c0,0,35.57,33.89,65.42,5.61"/>
		<path class="st17" d="M840.56,596.87c7.8-53.21-14.74-96.95-14.74-96.95"/>
		<path class="st17" d="M847.53,493.66c0,0,20.84,47.91,0,103.2c0,0,27.54,40.7,59.7,13.58"/>
		<path class="st17" d="M859.94,594.44c39.57-14.78,38.7-61.38,38.7-61.38"/>
		<path class="st17" d="M870.9,510.35c0,0,12.02,30.63-0.49,78.92"/>
		<path class="st17" d="M889.78,499.92c0,0,4.83,64.89-23,91.45"/>
		<path class="st17" d="M917.71,533.06c0,0-15.09,61.97-88.6,66.55"/>
		<path class="st17" d="M939.08,474.89c0,0,22.84,20.88,8.97,81.35"/>
		<path class="st17" d="M914.29,493.66c0,0,23.29,41.33,0,83.34"/>
		<path class="st17" d="M939.08,510.35c0,0,5.47,39.2-19.62,61.71"/>
		<path class="st17" d="M965.08,474.89c0,0,17.5,36.47-4.96,73.5"/>
	</g>
	<g>
		<path class="st18" d="M788.17,441.41c0,0-114.5,3.56-155.67-78.22"/>
		<path class="st18" d="M611.25,372.07c0,0,14.43,26.96,41.41,19.7"/>
		<path class="st18" d="M619.88,402.31c0,0,31.01,25.41,52.69,6.47"/>
		<path class="st18" d="M696.97,422.59c-39.11,38.07-54.51,8.15-54.51,8.15"/>
		<path class="st18" d="M717.42,430.46c0,0-35.03,18.57-51.72,1.79"/>
		<path class="st18" d="M769.95,363.18c0,0-13.94,34.8,0,78.73c0,0-27.25,28.89-50.11,4.78"/>
		<path class="st18" d="M748.03,436.94c-5.98-45.36,11.29-82.64,11.29-82.64"/>
		<path class="st18" d="M742.7,348.96c0,0-15.96,40.84,0,87.98c0,0-21.09,34.69-45.73,11.58"/>
		<path class="st18" d="M733.19,434.87c-30.31-12.59-29.64-52.33-29.64-52.33"/>
		<path class="st18" d="M724.8,363.18c0,0-9.21,26.11,0.38,67.28"/>
		<path class="st18" d="M710.33,354.3c0,0-3.7,55.32,17.61,77.96"/>
		<path class="st18" d="M688.94,382.54c0,0,11.56,52.82,67.86,56.73"/>
		<path class="st18" d="M672.57,332.96c0,0-17.5,17.8-6.87,69.34"/>
		<path class="st18" d="M691.56,348.96c0,0-17.84,35.23,0,71.04"/>
		<path class="st18" d="M672.57,363.18c0,0-4.19,33.41,15.02,52.61"/>
		<path class="st18" d="M652.66,332.96c0,0-13.4,31.09,3.8,62.65"/>
		<path class="st18" d="M788.17,441.41c0,0,114.5,3.56,155.67-78.22"/>
		<path class="st18" d="M965.08,372.07c0,0-14.43,26.96-41.41,19.7"/>
		<path class="st18" d="M956.45,402.31c0,0-31.01,25.41-52.69,6.47"/>
		<path class="st18" d="M879.36,422.59c39.11,38.07,54.51,8.15,54.51,8.15"/>
		<path class="st18" d="M858.91,430.46c0,0,35.03,18.57,51.72,1.79"/>
		<path class="st18" d="M806.39,363.18c0,0,13.94,34.8,0,78.73c0,0,27.25,28.89,50.11,4.78"/>
		<path class="st18" d="M828.3,436.94c5.98-45.36-11.29-82.64-11.29-82.64"/>
		<path class="st18" d="M833.63,348.96c0,0,15.96,40.84,0,87.98c0,0,21.09,34.69,45.73,11.58"/>
		<path class="st18" d="M843.14,434.87c30.31-12.59,29.64-52.33,29.64-52.33"/>
		<path class="st18" d="M851.54,363.18c0,0,9.21,26.11-0.38,67.28"/>
		<path class="st18" d="M866,354.3c0,0,3.7,55.32-17.61,77.96"/>
		<path class="st18" d="M887.39,382.54c0,0-11.56,52.82-67.86,56.73"/>
		<path class="st18" d="M903.76,332.96c0,0,17.5,17.8,6.87,69.34"/>
		<path class="st18" d="M884.77,348.96c0,0,17.84,35.23,0,71.04"/>
		<path class="st18" d="M903.76,363.18c0,0,4.19,33.41-15.02,52.61"/>
		<path class="st18" d="M923.67,332.96c0,0,13.4,31.09-3.8,62.65"/>
	</g>
	<g>
		<path class="st19" d="M788.17,301.4c0,0-85.24,3.1-115.89-68.23"/>
		<path class="st19" d="M656.46,240.93c0,0,10.74,23.51,30.83,17.18"/>
		<path class="st19" d="M662.89,267.3c0,0,23.09,22.16,39.22,5.65"/>
		<path class="st19" d="M720.28,284.99c-29.12,33.21-40.58,7.11-40.58,7.11"/>
		<path class="st19" d="M735.5,291.86c0,0-26.08,16.2-38.51,1.56"/>
		<path class="st19" d="M774.6,233.17c0,0-10.38,30.35,0,68.67c0,0-20.28,25.2-37.3,4.17"/>
		<path class="st19" d="M758.29,297.5c-4.45-39.56,8.4-72.08,8.4-72.08"/>
		<path class="st19" d="M754.32,220.77c0,0-11.88,35.62,0,76.73c0,0-15.7,30.26-34.04,10.1"/>
		<path class="st19" d="M747.24,295.7c-22.56-10.99-22.07-45.64-22.07-45.64"/>
		<path class="st19" d="M740.99,233.17c0,0-6.85,22.78,0.28,58.68"/>
		<path class="st19" d="M730.22,225.42c0,0-2.76,48.25,13.11,68"/>
		<path class="st19" d="M714.3,250.06c0,0,8.6,46.07,50.52,49.48"/>
		<path class="st19" d="M702.11,206.81c0,0-13.03,15.53-5.12,60.48"/>
		<path class="st19" d="M716.25,220.77c0,0-13.28,30.73,0,61.96"/>
		<path class="st19" d="M702.11,233.17c0,0-3.12,29.15,11.19,45.89"/>
		<path class="st19" d="M687.29,206.81c0,0-9.98,27.11,2.83,54.65"/>
		<path class="st19" d="M788.17,301.4c0,0,85.24,3.1,115.89-68.23"/>
		<path class="st19" d="M919.87,240.93c0,0-10.74,23.51-30.83,17.18"/>
		<path class="st19" d="M913.44,267.3c0,0-23.09,22.16-39.22,5.65"/>
		<path class="st19" d="M856.06,284.99c29.12,33.21,40.58,7.11,40.58,7.11"/>
		<path class="st19" d="M840.83,291.86c0,0,26.08,16.2,38.51,1.56"/>
		<path class="st19" d="M801.73,233.17c0,0,10.38,30.35,0,68.67c0,0,20.28,25.2,37.3,4.17"/>
		<path class="st19" d="M818.04,297.5c4.45-39.56-8.4-72.08-8.4-72.08"/>
		<path class="st19" d="M822.01,220.77c0,0,11.88,35.62,0,76.73c0,0,15.7,30.26,34.04,10.1"/>
		<path class="st19" d="M829.09,295.7c22.56-10.99,22.07-45.64,22.07-45.64"/>
		<path class="st19" d="M835.34,233.17c0,0,6.85,22.78-0.28,58.68"/>
		<path class="st19" d="M846.11,225.42c0,0,2.76,48.25-13.11,68"/>
		<path class="st19" d="M862.04,250.06c0,0-8.6,46.07-50.52,49.48"/>
		<path class="st19" d="M874.22,206.81c0,0,13.03,15.53,5.12,60.48"/>
		<path class="st19" d="M860.08,220.77c0,0,13.28,30.73,0,61.96"/>
		<path class="st19" d="M874.22,233.17c0,0,3.12,29.15-11.19,45.89"/>
		<path class="st19" d="M889.04,206.81c0,0,9.98,27.11-2.83,54.65"/>
	</g>
	<g>
		<path class="st17" d="M788.17,762.73c0,0-169.89,4.17-230.98-91.76"/>
		<path class="st17" d="M525.66,681.39c0,0,21.41,31.62,61.44,23.11"/>
		<path class="st17" d="M538.47,716.86c0,0,46.01,29.8,78.18,7.6"/>
		<path class="st17" d="M652.85,740.65c-58.03,44.66-80.88,9.56-80.88,9.56"/>
		<path class="st17" d="M683.2,749.89c0,0-51.98,21.79-76.75,2.1"/>
		<path class="st17" d="M761.13,670.96c0,0-20.69,40.82,0,92.36c0,0-40.43,33.89-74.35,5.61"/>
		<path class="st17" d="M728.62,757.48c-8.87-53.21,16.75-96.95,16.75-96.95"/>
		<path class="st17" d="M720.7,654.28c0,0-23.68,47.91,0,103.2c0,0-31.3,40.7-67.85,13.58"/>
		<path class="st17" d="M706.59,755.06c-44.97-14.78-43.98-61.38-43.98-61.38"/>
		<path class="st17" d="M694.14,670.96c0,0-13.66,30.63,0.56,78.92"/>
		<path class="st17" d="M672.68,660.54c0,0-5.49,64.89,26.13,91.45"/>
		<path class="st17" d="M640.93,693.67c0,0,17.15,61.97,100.69,66.55"/>
		<path class="st17" d="M616.65,635.51c0,0-25.96,20.88-10.2,81.35"/>
		<path class="st17" d="M644.83,654.28c0,0-26.47,41.33,0,83.34"/>
		<path class="st17" d="M616.65,670.96c0,0-6.22,39.2,22.29,61.71"/>
		<path class="st17" d="M587.1,635.51c0,0-19.89,36.47,5.64,73.5"/>
		<path class="st17" d="M788.17,762.73c0,0,169.89,4.17,230.98-91.76"/>
		<path class="st17" d="M1037.86,716.86c0,0-46.01,29.8-78.18,7.6"/>
		<path class="st17" d="M923.48,740.65c58.03,44.66,80.88,9.56,80.88,9.56"/>
		<path class="st17" d="M893.13,749.89c0,0,51.98,21.79,76.75,2.1"/>
		<path class="st17" d="M815.2,670.96c0,0,20.69,40.82,0,92.36c0,0,40.43,33.89,74.35,5.61"/>
		<path class="st17" d="M847.71,757.48c8.87-53.21-16.75-96.95-16.75-96.95"/>
		<path class="st17" d="M855.63,654.28c0,0,23.68,47.91,0,103.2c0,0,31.3,40.7,67.85,13.58"/>
		<path class="st17" d="M869.74,755.06c44.97-14.78,43.98-61.38,43.98-61.38"/>
		<path class="st17" d="M882.2,670.96c0,0,13.66,30.63-0.56,78.92"/>
		<path class="st17" d="M903.65,660.54c0,0,5.49,64.89-26.13,91.45"/>
		<path class="st17" d="M935.4,693.67c0,0-17.15,61.97-100.69,66.55"/>
		<path class="st17" d="M959.68,635.51c0,0,25.96,20.88,10.2,81.35"/>
		<path class="st17" d="M931.51,654.28c0,0,26.47,41.33,0,83.34"/>
		<path class="st17" d="M959.68,670.96c0,0,6.22,39.2-22.29,61.71"/>
	</g>
	<g>
		<path class="st17" d="M788.17,602.11c0,0-149.49,4.17-203.23-91.76"/>
		<path class="st17" d="M557.19,520.77c0,0,18.83,31.62,54.06,23.11"/>
		<path class="st17" d="M568.46,556.24c0,0,40.49,29.8,68.79,7.6"/>
		<path class="st17" d="M669.1,580.03c-51.06,44.66-71.17,9.56-71.17,9.56"/>
		<path class="st17" d="M695.81,589.27c0,0-45.73,21.79-67.53,2.1"/>
		<path class="st17" d="M764.38,510.35c0,0-18.2,40.82,0,92.36c0,0-35.57,33.89-65.42,5.61"/>
		<path class="st17" d="M735.77,596.87c-7.8-53.21,14.74-96.95,14.74-96.95"/>
		<path class="st17" d="M728.8,493.66c0,0-20.84,47.91,0,103.2c0,0-27.54,40.7-59.7,13.58"/>
		<path class="st17" d="M716.39,594.44c-39.57-14.78-38.7-61.38-38.7-61.38"/>
		<path class="st17" d="M705.43,510.35c0,0-12.02,30.63,0.49,78.92"/>
		<path class="st17" d="M686.55,499.92c0,0-4.83,64.89,23,91.45"/>
		<path class="st17" d="M658.62,533.06c0,0,15.09,61.97,88.6,66.55"/>
		<path class="st17" d="M637.25,474.89c0,0-22.84,20.88-8.97,81.35"/>
		<path class="st17" d="M662.04,493.66c0,0-23.29,41.33,0,83.34"/>
		<path class="st17" d="M637.25,510.35c0,0-5.47,39.2,19.62,61.71"/>
		<path class="st17" d="M611.25,474.89c0,0-17.5,36.47,4.96,73.5"/>
		<path class="st17" d="M788.17,602.11c0,0,149.49,4.17,203.23-91.76"/>
		<path class="st17" d="M1007.87,556.24c0,0-40.49,29.8-68.79,7.6"/>
		<path class="st17" d="M907.23,580.03c51.06,44.66,71.17,9.56,71.17,9.56"/>
		<path class="st17" d="M880.53,589.27c0,0,45.73,21.79,67.53,2.1"/>
		<path class="st17" d="M811.95,510.35c0,0,18.2,40.82,0,92.36c0,0,35.57,33.89,65.42,5.61"/>
		<path class="st17" d="M840.56,596.87c7.8-53.21-14.74-96.95-14.74-96.95"/>
		<path class="st17" d="M847.53,493.66c0,0,20.84,47.91,0,103.2c0,0,27.54,40.7,59.7,13.58"/>
		<path class="st17" d="M859.94,594.44c39.57-14.78,38.7-61.38,38.7-61.38"/>
		<path class="st17" d="M870.9,510.35c0,0,12.02,30.63-0.49,78.92"/>
		<path class="st17" d="M889.78,499.92c0,0,4.83,64.89-23,91.45"/>
		<path class="st17" d="M917.71,533.06c0,0-15.09,61.97-88.6,66.55"/>
		<path class="st17" d="M939.08,474.89c0,0,22.84,20.88,8.97,81.35"/>
		<path class="st17" d="M914.29,493.66c0,0,23.29,41.33,0,83.34"/>
		<path class="st17" d="M939.08,510.35c0,0,5.47,39.2-19.62,61.71"/>
		<path class="st17" d="M965.08,474.89c0,0,17.5,36.47-4.96,73.5"/>
	</g>
	<g>
		<path class="st18" d="M788.17,441.41c0,0-114.5,3.56-155.67-78.22"/>
		<path class="st18" d="M611.25,372.07c0,0,14.43,26.96,41.41,19.7"/>
		<path class="st18" d="M619.88,402.31c0,0,31.01,25.41,52.69,6.47"/>
		<path class="st18" d="M696.97,422.59c-39.11,38.07-54.51,8.15-54.51,8.15"/>
		<path class="st18" d="M717.42,430.46c0,0-35.03,18.57-51.72,1.79"/>
		<path class="st18" d="M769.95,363.18c0,0-13.94,34.8,0,78.73c0,0-27.25,28.89-50.11,4.78"/>
		<path class="st18" d="M748.03,436.94c-5.98-45.36,11.29-82.64,11.29-82.64"/>
		<path class="st18" d="M742.7,348.96c0,0-15.96,40.84,0,87.98c0,0-21.09,34.69-45.73,11.58"/>
		<path class="st18" d="M733.19,434.87c-30.31-12.59-29.64-52.33-29.64-52.33"/>
		<path class="st18" d="M724.8,363.18c0,0-9.21,26.11,0.38,67.28"/>
		<path class="st18" d="M710.33,354.3c0,0-3.7,55.32,17.61,77.96"/>
		<path class="st18" d="M688.94,382.54c0,0,11.56,52.82,67.86,56.73"/>
		<path class="st18" d="M672.57,332.96c0,0-17.5,17.8-6.87,69.34"/>
		<path class="st18" d="M691.56,348.96c0,0-17.84,35.23,0,71.04"/>
		<path class="st18" d="M672.57,363.18c0,0-4.19,33.41,15.02,52.61"/>
		<path class="st18" d="M652.66,332.96c0,0-13.4,31.09,3.8,62.65"/>
		<path class="st18" d="M788.17,441.41c0,0,114.5,3.56,155.67-78.22"/>
		<path class="st18" d="M965.08,372.07c0,0-14.43,26.96-41.41,19.7"/>
		<path class="st18" d="M956.45,402.31c0,0-31.01,25.41-52.69,6.47"/>
		<path class="st18" d="M879.36,422.59c39.11,38.07,54.51,8.15,54.51,8.15"/>
		<path class="st18" d="M858.91,430.46c0,0,35.03,18.57,51.72,1.79"/>
		<path class="st18" d="M806.39,363.18c0,0,13.94,34.8,0,78.73c0,0,27.25,28.89,50.11,4.78"/>
		<path class="st18" d="M828.3,436.94c5.98-45.36-11.29-82.64-11.29-82.64"/>
		<path class="st18" d="M833.63,348.96c0,0,15.96,40.84,0,87.98c0,0,21.09,34.69,45.73,11.58"/>
		<path class="st18" d="M843.14,434.87c30.31-12.59,29.64-52.33,29.64-52.33"/>
		<path class="st18" d="M851.54,363.18c0,0,9.21,26.11-0.38,67.28"/>
		<path class="st18" d="M866,354.3c0,0,3.7,55.32-17.61,77.96"/>
		<path class="st18" d="M887.39,382.54c0,0-11.56,52.82-67.86,56.73"/>
		<path class="st18" d="M903.76,332.96c0,0,17.5,17.8,6.87,69.34"/>
		<path class="st18" d="M884.77,348.96c0,0,17.84,35.23,0,71.04"/>
		<path class="st18" d="M903.76,363.18c0,0,4.19,33.41-15.02,52.61"/>
		<path class="st18" d="M923.67,332.96c0,0,13.4,31.09-3.8,62.65"/>
	</g>
	<g>
		<path class="st19" d="M788.17,301.4c0,0-85.24,3.1-115.89-68.23"/>
		<path class="st19" d="M656.46,240.93c0,0,10.74,23.51,30.83,17.18"/>
		<path class="st19" d="M662.89,267.3c0,0,23.09,22.16,39.22,5.65"/>
		<path class="st19" d="M720.28,284.99c-29.12,33.21-40.58,7.11-40.58,7.11"/>
		<path class="st19" d="M735.5,291.86c0,0-26.08,16.2-38.51,1.56"/>
		<path class="st19" d="M774.6,233.17c0,0-10.38,30.35,0,68.67c0,0-20.28,25.2-37.3,4.17"/>
		<path class="st19" d="M758.29,297.5c-4.45-39.56,8.4-72.08,8.4-72.08"/>
		<path class="st19" d="M754.32,220.77c0,0-11.88,35.62,0,76.73c0,0-15.7,30.26-34.04,10.1"/>
		<path class="st19" d="M747.24,295.7c-22.56-10.99-22.07-45.64-22.07-45.64"/>
		<path class="st19" d="M740.99,233.17c0,0-6.85,22.78,0.28,58.68"/>
		<path class="st19" d="M730.22,225.42c0,0-2.76,48.25,13.11,68"/>
		<path class="st19" d="M714.3,250.06c0,0,8.6,46.07,50.52,49.48"/>
		<path class="st19" d="M702.11,206.81c0,0-13.03,15.53-5.12,60.48"/>
		<path class="st19" d="M716.25,220.77c0,0-13.28,30.73,0,61.96"/>
		<path class="st19" d="M702.11,233.17c0,0-3.12,29.15,11.19,45.89"/>
		<path class="st19" d="M687.29,206.81c0,0-9.98,27.11,2.83,54.65"/>
		<path class="st19" d="M788.17,301.4c0,0,85.24,3.1,115.89-68.23"/>
		<path class="st19" d="M919.87,240.93c0,0-10.74,23.51-30.83,17.18"/>
		<path class="st19" d="M913.44,267.3c0,0-23.09,22.16-39.22,5.65"/>
		<path class="st19" d="M856.06,284.99c29.12,33.21,40.58,7.11,40.58,7.11"/>
		<path class="st19" d="M840.83,291.86c0,0,26.08,16.2,38.51,1.56"/>
		<path class="st19" d="M801.73,233.17c0,0,10.38,30.35,0,68.67c0,0,20.28,25.2,37.3,4.17"/>
		<path class="st19" d="M818.04,297.5c4.45-39.56-8.4-72.08-8.4-72.08"/>
		<path class="st19" d="M822.01,220.77c0,0,11.88,35.62,0,76.73c0,0,15.7,30.26,34.04,10.1"/>
		<path class="st19" d="M829.09,295.7c22.56-10.99,22.07-45.64,22.07-45.64"/>
		<path class="st19" d="M835.34,233.17c0,0,6.85,22.78-0.28,58.68"/>
		<path class="st19" d="M846.11,225.42c0,0,2.76,48.25-13.11,68"/>
		<path class="st19" d="M862.04,250.06c0,0-8.6,46.07-50.52,49.48"/>
		<path class="st19" d="M874.22,206.81c0,0,13.03,15.53,5.12,60.48"/>
		<path class="st19" d="M860.08,220.77c0,0,13.28,30.73,0,61.96"/>
		<path class="st19" d="M874.22,233.17c0,0,3.12,29.15-11.19,45.89"/>
		<path class="st19" d="M889.04,206.81c0,0,9.98,27.11-2.83,54.65"/>
	</g>
	<g>
		<path class="st19" d="M788.17,178.9c0,0-61.52,2.24-83.64-49.24"/>
		<path class="st19" d="M693.11,135.26c0,0,7.75,16.97,22.25,12.4"/>
		<path class="st19" d="M697.75,154.29c0,0,16.66,15.99,28.31,4.08"/>
		<path class="st19" d="M739.17,167.06c-21.01,23.97-29.29,5.13-29.29,5.13"/>
		<path class="st19" d="M750.16,172.02c0,0-18.82,11.69-27.79,1.13"/>
		<path class="st19" d="M778.38,129.66c0,0-7.49,21.91,0,49.56c0,0-14.64,18.19-26.92,3.01"/>
		<path class="st19" d="M766.6,176.09c-3.21-28.55,6.06-52.02,6.06-52.02"/>
		<path class="st19" d="M763.74,120.71c0,0-8.57,25.71,0,55.38c0,0-11.33,21.84-24.57,7.29"/>
		<path class="st19" d="M758.63,174.79c-16.29-7.93-15.93-32.94-15.93-32.94"/>
		<path class="st19" d="M754.12,129.66c0,0-4.95,16.44,0.2,42.35"/>
		<path class="st19" d="M746.35,124.07c0,0-1.99,34.82,9.46,49.07"/>
		<path class="st19" d="M734.85,141.85c0,0,6.21,33.25,36.46,35.71"/>
		<path class="st19" d="M726.06,110.64c0,0-9.4,11.21-3.69,43.65"/>
		<path class="st19" d="M736.26,120.71c0,0-9.58,22.18,0,44.72"/>
		<path class="st19" d="M726.06,129.66c0,0-2.25,21.03,8.07,33.12"/>
		<path class="st19" d="M715.36,110.64c0,0-7.2,19.57,2.04,39.44"/>
		<path class="st19" d="M788.17,178.9c0,0,61.52,2.24,83.64-49.24"/>
		<path class="st19" d="M883.22,135.26c0,0-7.75,16.97-22.25,12.4"/>
		<path class="st19" d="M878.58,154.29c0,0-16.66,15.99-28.31,4.08"/>
		<path class="st19" d="M837.16,167.06c21.01,23.97,29.29,5.13,29.29,5.13"/>
		<path class="st19" d="M826.17,172.02c0,0,18.82,11.69,27.79,1.13"/>
		<path class="st19" d="M797.96,129.66c0,0,7.49,21.91,0,49.56c0,0,14.64,18.19,26.92,3.01"/>
		<path class="st19" d="M809.73,176.09c3.21-28.55-6.06-52.02-6.06-52.02"/>
		<path class="st19" d="M812.59,120.71c0,0,8.57,25.71,0,55.38c0,0,11.33,21.84,24.57,7.29"/>
		<path class="st19" d="M817.7,174.79c16.29-7.93,15.93-32.94,15.93-32.94"/>
		<path class="st19" d="M822.21,129.66c0,0,4.95,16.44-0.2,42.35"/>
		<path class="st19" d="M829.98,124.07c0,0,1.99,34.82-9.46,49.07"/>
		<path class="st19" d="M841.48,141.85c0,0-6.21,33.25-36.46,35.71"/>
		<path class="st19" d="M850.27,110.64c0,0,9.4,11.21,3.69,43.65"/>
		<path class="st19" d="M840.07,120.71c0,0,9.58,22.18,0,44.72"/>
		<path class="st19" d="M850.27,129.66c0,0,2.25,21.03-8.07,33.12"/>
		<path class="st19" d="M860.97,110.64c0,0,7.2,19.57-2.04,39.44"/>
	</g>
	<path class="st19" d="M768.48,46c0,0,11.36,31.93,19.69,39.3"/>
	<path class="st19" d="M758.63,74.1c0,0,8.66,36.6,29.54,43.37"/>
	<path class="st19" d="M807.85,46c0,0-11.36,31.93-19.69,39.3"/>
	<path class="st19" d="M817.7,74.1c0,0-8.66,36.6-29.54,43.37"/>
</g>
<g>
	<g>
		<path class="st23" d="M321.14,508.08c-0.1,46.2,0.44,92.41,1.13,138.61l2.01,138.61l2.01,138.61l2.26,138.61
			c0.09,5.37-4.19,9.79-9.56,9.88c-5.37,0.09-9.79-4.19-9.88-9.56c0-0.09,0-0.23,0-0.32l2.26-138.61l2.01-138.61l2.01-138.61
			c0.69-46.2,1.23-92.41,1.13-138.61c0-1.28,1.03-2.33,2.32-2.33c1.28,0,2.33,1.03,2.33,2.32V508.08z"/>
	</g>
	<g>
		<path class="st24" d="M318.82,960.12c0,0-128.48,2.62-174.67-57.58"/>
		<path class="st24" d="M120.31,909.09c0,0,16.19,19.84,46.46,14.5"/>
		<path class="st24" d="M129.99,931.34c0,0,34.8,18.7,59.12,4.77"/>
		<path class="st24" d="M216.49,946.27c-43.89,28.03-61.17,6-61.17,6"/>
		<path class="st24" d="M239.44,952.07c0,0-39.31,13.67-58.04,1.32"/>
		<path class="st24" d="M298.37,902.54c0,0-15.65,25.62,0,57.96c0,0-30.57,21.27-56.23,3.52"/>
		<path class="st24" d="M273.79,956.83c-6.71-33.39,12.67-60.84,12.67-60.84"/>
		<path class="st24" d="M267.8,892.07c0,0-17.91,30.06,0,64.76c0,0-23.67,25.54-51.31,8.52"/>
		<path class="st24" d="M257.13,955.31c-34.01-9.27-33.26-38.52-33.26-38.52"/>
		<path class="st24" d="M247.71,902.54c0,0-10.33,19.22,0.42,49.53"/>
		<path class="st24" d="M231.48,896c0,0-4.15,40.72,19.76,57.39"/>
		<path class="st24" d="M207.48,916.79c0,0,12.97,38.88,76.15,41.76"/>
		<path class="st24" d="M189.11,880.29c0,0-19.63,13.1-7.71,51.05"/>
		<path class="st24" d="M210.42,892.07c0,0-20.02,25.94,0,52.3"/>
		<path class="st24" d="M189.11,902.54c0,0-4.7,24.6,16.86,38.73"/>
		<path class="st24" d="M166.77,880.29c0,0-15.04,22.88,4.27,46.12"/>
		<path class="st24" d="M318.82,960.12c0,0,128.48,2.62,174.67-57.58"/>
		<path class="st24" d="M517.33,909.09c0,0-16.19,19.84-46.46,14.5"/>
		<path class="st24" d="M507.64,931.34c0,0-34.8,18.7-59.12,4.77"/>
		<path class="st24" d="M421.14,946.27c43.89,28.03,61.17,6,61.17,6"/>
		<path class="st24" d="M398.19,952.07c0,0,39.31,13.67,58.04,1.32"/>
		<path class="st24" d="M339.26,902.54c0,0,15.65,25.62,0,57.96c0,0,30.57,21.27,56.23,3.52"/>
		<path class="st24" d="M363.85,956.83c6.71-33.39-12.67-60.84-12.67-60.84"/>
		<path class="st24" d="M369.83,892.07c0,0,17.91,30.06,0,64.76c0,0,23.67,25.54,51.31,8.52"/>
		<path class="st24" d="M380.5,955.31c34.01-9.27,33.26-38.52,33.26-38.52"/>
		<path class="st24" d="M389.92,902.54c0,0,10.33,19.22-0.42,49.53"/>
		<path class="st24" d="M406.15,896c0,0,4.15,40.72-19.76,57.39"/>
		<path class="st24" d="M430.15,916.79c0,0-12.97,38.88-76.15,41.76"/>
		<path class="st24" d="M448.52,880.29c0,0,19.63,13.1,7.71,51.05"/>
		<path class="st24" d="M427.21,892.07c0,0,20.02,25.94,0,52.3"/>
		<path class="st24" d="M448.52,902.54c0,0,4.7,24.6-16.86,38.73"/>
		<path class="st24" d="M470.86,880.29c0,0,15.04,22.88-4.27,46.12"/>
	</g>
	<g>
		<path class="st24" d="M318.82,859.33c0,0-113.05,2.62-153.69-57.58"/>
		<path class="st24" d="M144.15,808.3c0,0,14.24,19.84,40.88,14.5"/>
		<path class="st24" d="M152.67,830.55c0,0,30.62,18.7,52.02,4.77"/>
		<path class="st24" d="M228.78,845.48c-38.61,28.03-53.82,6-53.82,6"/>
		<path class="st24" d="M248.97,851.28c0,0-34.58,13.67-51.07,1.32"/>
		<path class="st24" d="M300.83,801.75c0,0-13.77,25.62,0,57.96c0,0-26.9,21.27-49.47,3.52"/>
		<path class="st24" d="M279.19,856.05c-5.9-33.39,11.14-60.84,11.14-60.84"/>
		<path class="st24" d="M273.93,791.28c0,0-15.76,30.06,0,64.76c0,0-20.83,25.54-45.15,8.52"/>
		<path class="st24" d="M264.54,854.52c-29.93-9.27-29.27-38.52-29.27-38.52"/>
		<path class="st24" d="M256.25,801.75c0,0-9.09,19.22,0.37,49.53"/>
		<path class="st24" d="M241.97,795.21c0,0-3.65,40.72,17.39,57.39"/>
		<path class="st24" d="M220.85,816c0,0,11.41,38.88,67,41.76"/>
		<path class="st24" d="M204.69,779.51c0,0-17.27,13.1-6.79,51.05"/>
		<path class="st24" d="M223.44,791.28c0,0-17.61,25.94,0,52.3"/>
		<path class="st24" d="M204.69,801.75c0,0-4.14,24.6,14.83,38.73"/>
		<path class="st24" d="M185.03,779.51c0,0-13.23,22.88,3.75,46.12"/>
		<path class="st24" d="M318.82,859.33c0,0,113.05,2.62,153.69-57.58"/>
		<path class="st24" d="M493.48,808.3c0,0-14.24,19.84-40.88,14.5"/>
		<path class="st24" d="M484.96,830.55c0,0-30.62,18.7-52.02,4.77"/>
		<path class="st24" d="M408.85,845.48c38.61,28.03,53.82,6,53.82,6"/>
		<path class="st24" d="M388.66,851.28c0,0,34.58,13.67,51.07,1.32"/>
		<path class="st24" d="M336.8,801.75c0,0,13.77,25.62,0,57.96c0,0,26.9,21.27,49.47,3.52"/>
		<path class="st24" d="M358.44,856.05c5.9-33.39-11.14-60.84-11.14-60.84"/>
		<path class="st24" d="M363.71,791.28c0,0,15.76,30.06,0,64.76c0,0,20.83,25.54,45.15,8.52"/>
		<path class="st24" d="M373.09,854.52c29.93-9.27,29.27-38.52,29.27-38.52"/>
		<path class="st24" d="M381.38,801.75c0,0,9.09,19.22-0.37,49.53"/>
		<path class="st24" d="M395.66,795.21c0,0,3.65,40.72-17.39,57.39"/>
		<path class="st24" d="M416.78,816c0,0-11.41,38.88-67,41.76"/>
		<path class="st24" d="M432.94,779.51c0,0,17.27,13.1,6.79,51.05"/>
		<path class="st24" d="M414.19,791.28c0,0,17.61,25.94,0,52.3"/>
		<path class="st24" d="M432.94,801.75c0,0,4.14,24.6-14.83,38.73"/>
		<path class="st24" d="M452.6,779.51c0,0,13.23,22.88-3.75,46.12"/>
	</g>
	<g>
		<path class="st25" d="M318.82,758.49c0,0-86.59,2.23-117.72-49.08"/>
		<path class="st25" d="M185.03,714.99c0,0,10.91,16.92,31.31,12.36"/>
		<path class="st25" d="M191.56,733.96c0,0,23.45,15.94,39.84,4.06"/>
		<path class="st25" d="M249.85,746.69c-29.58,23.89-41.22,5.11-41.22,5.11"/>
		<path class="st25" d="M265.32,751.63c0,0-26.49,11.65-39.11,1.12"/>
		<path class="st25" d="M305.04,709.41c0,0-10.54,21.84,0,49.41c0,0-20.6,18.13-37.89,3"/>
		<path class="st25" d="M288.47,755.69c-4.52-28.46,8.54-51.86,8.54-51.86"/>
		<path class="st25" d="M284.43,700.48c0,0-12.07,25.63,0,55.21c0,0-15.95,21.77-34.58,7.27"/>
		<path class="st25" d="M277.24,754.39c-22.92-7.9-22.42-32.83-22.42-32.83"/>
		<path class="st25" d="M270.89,709.41c0,0-6.96,16.39,0.29,42.22"/>
		<path class="st25" d="M259.96,703.83c0,0-2.8,34.71,13.32,48.92"/>
		<path class="st25" d="M243.78,721.56c0,0,8.74,33.15,51.32,35.6"/>
		<path class="st25" d="M231.4,690.44c0,0-13.23,11.17-5.2,43.51"/>
		<path class="st25" d="M245.76,700.48c0,0-13.49,22.11,0,44.58"/>
		<path class="st25" d="M231.4,709.41c0,0-3.17,20.97,11.36,33.01"/>
		<path class="st25" d="M216.34,690.44c0,0-10.14,19.51,2.87,39.32"/>
		<path class="st25" d="M318.82,758.49c0,0,86.59,2.23,117.72-49.08"/>
		<path class="st25" d="M452.6,714.99c0,0-10.91,16.92-31.31,12.36"/>
		<path class="st25" d="M446.07,733.96c0,0-23.45,15.94-39.84,4.06"/>
		<path class="st25" d="M387.78,746.69c29.58,23.89,41.22,5.11,41.22,5.11"/>
		<path class="st25" d="M372.31,751.63c0,0,26.49,11.65,39.11,1.12"/>
		<path class="st25" d="M332.59,709.41c0,0,10.54,21.84,0,49.41c0,0,20.6,18.13,37.89,3"/>
		<path class="st25" d="M349.16,755.69c4.52-28.46-8.54-51.86-8.54-51.86"/>
		<path class="st25" d="M353.2,700.48c0,0,12.07,25.63,0,55.21c0,0,15.95,21.77,34.58,7.27"/>
		<path class="st25" d="M360.39,754.39c22.92-7.9,22.42-32.83,22.42-32.83"/>
		<path class="st25" d="M366.74,709.41c0,0,6.96,16.39-0.29,42.22"/>
		<path class="st25" d="M377.67,703.83c0,0,2.8,34.71-13.32,48.92"/>
		<path class="st25" d="M393.85,721.56c0,0-8.74,33.15-51.32,35.6"/>
		<path class="st25" d="M406.23,690.44c0,0,13.23,11.17,5.2,43.51"/>
		<path class="st25" d="M391.87,700.48c0,0,13.49,22.11,0,44.58"/>
		<path class="st25" d="M406.23,709.41c0,0,3.17,20.97-11.36,33.01"/>
		<path class="st25" d="M421.29,690.44c0,0,10.14,19.51-2.87,39.32"/>
	</g>
	<g>
		<path class="st26" d="M318.82,670.64c0,0-64.46,1.95-87.63-42.81"/>
		<path class="st26" d="M219.22,632.69c0,0,8.12,14.75,23.31,10.78"/>
		<path class="st26" d="M224.08,649.24c0,0,17.46,13.91,29.66,3.54"/>
		<path class="st26" d="M267.48,660.34c-22.02,20.84-30.69,4.46-30.69,4.46"/>
		<path class="st26" d="M278.99,664.65c0,0-19.72,10.17-29.12,0.98"/>
		<path class="st26" d="M308.56,627.83c0,0-7.85,19.05,0,43.09c0,0-15.34,15.81-28.21,2.62"/>
		<path class="st26" d="M296.22,668.19c-3.36-24.83,6.35-45.23,6.35-45.23"/>
		<path class="st26" d="M293.22,620.04c0,0-8.98,22.35,0,48.15c0,0-11.88,18.99-25.74,6.34"/>
		<path class="st26" d="M287.87,667.06c-17.06-6.89-16.69-28.64-16.69-28.64"/>
		<path class="st26" d="M283.14,627.83c0,0-5.18,14.29,0.21,36.82"/>
		<path class="st26" d="M275,622.96c0,0-2.08,30.28,9.92,42.67"/>
		<path class="st26" d="M262.95,638.42c0,0,6.51,28.91,38.2,31.05"/>
		<path class="st26" d="M253.74,611.28c0,0-9.85,9.74-3.87,37.95"/>
		<path class="st26" d="M264.43,620.04c0,0-10.04,19.28,0,38.88"/>
		<path class="st26" d="M253.74,627.83c0,0-2.36,18.29,8.46,28.79"/>
		<path class="st26" d="M242.53,611.28c0,0-7.55,17.01,2.14,34.29"/>
		<path class="st26" d="M318.82,670.64c0,0,64.46,1.95,87.63-42.81"/>
		<path class="st26" d="M418.41,632.69c0,0-8.12,14.75-23.31,10.78"/>
		<path class="st26" d="M413.55,649.24c0,0-17.46,13.91-29.66,3.54"/>
		<path class="st26" d="M370.15,660.34c22.02,20.84,30.69,4.46,30.69,4.46"/>
		<path class="st26" d="M358.64,664.65c0,0,19.72,10.17,29.12,0.98"/>
		<path class="st26" d="M329.07,627.83c0,0,7.85,19.05,0,43.09c0,0,15.34,15.81,28.21,2.62"/>
		<path class="st26" d="M341.41,668.19c3.36-24.83-6.35-45.23-6.35-45.23"/>
		<path class="st26" d="M344.41,620.04c0,0,8.98,22.35,0,48.15c0,0,11.88,18.99,25.74,6.34"/>
		<path class="st26" d="M349.77,667.06c17.06-6.89,16.69-28.64,16.69-28.64"/>
		<path class="st26" d="M354.49,627.83c0,0,5.18,14.29-0.21,36.82"/>
		<path class="st26" d="M362.63,622.96c0,0,2.08,30.28-9.92,42.67"/>
		<path class="st26" d="M374.68,638.42c0,0-6.51,28.91-38.2,31.05"/>
		<path class="st26" d="M383.89,611.28c0,0,9.85,9.74,3.87,37.95"/>
		<path class="st26" d="M373.2,620.04c0,0,10.04,19.28,0,38.88"/>
		<path class="st26" d="M383.89,627.83c0,0,2.36,18.29-8.46,28.79"/>
		<path class="st26" d="M395.1,611.28c0,0,7.55,17.01-2.14,34.29"/>
	</g>
	<g>
		<path class="st24" d="M318.82,960.12c0,0-128.48,2.62-174.67-57.58"/>
		<path class="st24" d="M120.31,909.09c0,0,16.19,19.84,46.46,14.5"/>
		<path class="st24" d="M129.99,931.34c0,0,34.8,18.7,59.12,4.77"/>
		<path class="st24" d="M216.49,946.27c-43.89,28.03-61.17,6-61.17,6"/>
		<path class="st24" d="M239.44,952.07c0,0-39.31,13.67-58.04,1.32"/>
		<path class="st24" d="M298.37,902.54c0,0-15.65,25.62,0,57.96c0,0-30.57,21.27-56.23,3.52"/>
		<path class="st24" d="M273.79,956.83c-6.71-33.39,12.67-60.84,12.67-60.84"/>
		<path class="st24" d="M267.8,892.07c0,0-17.91,30.06,0,64.76c0,0-23.67,25.54-51.31,8.52"/>
		<path class="st24" d="M257.13,955.31c-34.01-9.27-33.26-38.52-33.26-38.52"/>
		<path class="st24" d="M247.71,902.54c0,0-10.33,19.22,0.42,49.53"/>
		<path class="st24" d="M231.48,896c0,0-4.15,40.72,19.76,57.39"/>
		<path class="st24" d="M207.48,916.79c0,0,12.97,38.88,76.15,41.76"/>
		<path class="st24" d="M189.11,880.29c0,0-19.63,13.1-7.71,51.05"/>
		<path class="st24" d="M210.42,892.07c0,0-20.02,25.94,0,52.3"/>
		<path class="st24" d="M189.11,902.54c0,0-4.7,24.6,16.86,38.73"/>
		<path class="st24" d="M166.77,880.29c0,0-15.04,22.88,4.27,46.12"/>
		<path class="st24" d="M318.82,960.12c0,0,128.48,2.62,174.67-57.58"/>
		<path class="st24" d="M517.33,909.09c0,0-16.19,19.84-46.46,14.5"/>
		<path class="st24" d="M507.64,931.34c0,0-34.8,18.7-59.12,4.77"/>
		<path class="st24" d="M421.14,946.27c43.89,28.03,61.17,6,61.17,6"/>
		<path class="st24" d="M398.19,952.07c0,0,39.31,13.67,58.04,1.32"/>
		<path class="st24" d="M339.26,902.54c0,0,15.65,25.62,0,57.96c0,0,30.57,21.27,56.23,3.52"/>
		<path class="st24" d="M363.85,956.83c6.71-33.39-12.67-60.84-12.67-60.84"/>
		<path class="st24" d="M369.83,892.07c0,0,17.91,30.06,0,64.76c0,0,23.67,25.54,51.31,8.52"/>
		<path class="st24" d="M380.5,955.31c34.01-9.27,33.26-38.52,33.26-38.52"/>
		<path class="st24" d="M389.92,902.54c0,0,10.33,19.22-0.42,49.53"/>
		<path class="st24" d="M406.15,896c0,0,4.15,40.72-19.76,57.39"/>
		<path class="st24" d="M430.15,916.79c0,0-12.97,38.88-76.15,41.76"/>
		<path class="st24" d="M448.52,880.29c0,0,19.63,13.1,7.71,51.05"/>
		<path class="st24" d="M427.21,892.07c0,0,20.02,25.94,0,52.3"/>
		<path class="st24" d="M448.52,902.54c0,0,4.7,24.6-16.86,38.73"/>
		<path class="st24" d="M470.86,880.29c0,0,15.04,22.88-4.27,46.12"/>
	</g>
	<g>
		<path class="st24" d="M318.82,859.33c0,0-113.05,2.62-153.69-57.58"/>
		<path class="st24" d="M144.15,808.3c0,0,14.24,19.84,40.88,14.5"/>
		<path class="st24" d="M152.67,830.55c0,0,30.62,18.7,52.02,4.77"/>
		<path class="st24" d="M228.78,845.48c-38.61,28.03-53.82,6-53.82,6"/>
		<path class="st24" d="M248.97,851.28c0,0-34.58,13.67-51.07,1.32"/>
		<path class="st24" d="M300.83,801.75c0,0-13.77,25.62,0,57.96c0,0-26.9,21.27-49.47,3.52"/>
		<path class="st24" d="M279.19,856.05c-5.9-33.39,11.14-60.84,11.14-60.84"/>
		<path class="st24" d="M273.93,791.28c0,0-15.76,30.06,0,64.76c0,0-20.83,25.54-45.15,8.52"/>
		<path class="st24" d="M264.54,854.52c-29.93-9.27-29.27-38.52-29.27-38.52"/>
		<path class="st24" d="M256.25,801.75c0,0-9.09,19.22,0.37,49.53"/>
		<path class="st24" d="M241.97,795.21c0,0-3.65,40.72,17.39,57.39"/>
		<path class="st24" d="M220.85,816c0,0,11.41,38.88,67,41.76"/>
		<path class="st24" d="M204.69,779.51c0,0-17.27,13.1-6.79,51.05"/>
		<path class="st24" d="M223.44,791.28c0,0-17.61,25.94,0,52.3"/>
		<path class="st24" d="M204.69,801.75c0,0-4.14,24.6,14.83,38.73"/>
		<path class="st24" d="M185.03,779.51c0,0-13.23,22.88,3.75,46.12"/>
		<path class="st24" d="M318.82,859.33c0,0,113.05,2.62,153.69-57.58"/>
		<path class="st24" d="M493.48,808.3c0,0-14.24,19.84-40.88,14.5"/>
		<path class="st24" d="M484.96,830.55c0,0-30.62,18.7-52.02,4.77"/>
		<path class="st24" d="M408.85,845.48c38.61,28.03,53.82,6,53.82,6"/>
		<path class="st24" d="M388.66,851.28c0,0,34.58,13.67,51.07,1.32"/>
		<path class="st24" d="M336.8,801.75c0,0,13.77,25.62,0,57.96c0,0,26.9,21.27,49.47,3.52"/>
		<path class="st24" d="M358.44,856.05c5.9-33.39-11.14-60.84-11.14-60.84"/>
		<path class="st24" d="M363.71,791.28c0,0,15.76,30.06,0,64.76c0,0,20.83,25.54,45.15,8.52"/>
		<path class="st24" d="M373.09,854.52c29.93-9.27,29.27-38.52,29.27-38.52"/>
		<path class="st24" d="M381.38,801.75c0,0,9.09,19.22-0.37,49.53"/>
		<path class="st24" d="M395.66,795.21c0,0,3.65,40.72-17.39,57.39"/>
		<path class="st24" d="M416.78,816c0,0-11.41,38.88-67,41.76"/>
		<path class="st24" d="M432.94,779.51c0,0,17.27,13.1,6.79,51.05"/>
		<path class="st24" d="M414.19,791.28c0,0,17.61,25.94,0,52.3"/>
		<path class="st24" d="M432.94,801.75c0,0,4.14,24.6-14.83,38.73"/>
		<path class="st24" d="M452.6,779.51c0,0,13.23,22.88-3.75,46.12"/>
	</g>
	<g>
		<path class="st25" d="M318.82,758.49c0,0-86.59,2.23-117.72-49.08"/>
		<path class="st25" d="M185.03,714.99c0,0,10.91,16.92,31.31,12.36"/>
		<path class="st25" d="M191.56,733.96c0,0,23.45,15.94,39.84,4.06"/>
		<path class="st25" d="M249.85,746.69c-29.58,23.89-41.22,5.11-41.22,5.11"/>
		<path class="st25" d="M265.32,751.63c0,0-26.49,11.65-39.11,1.12"/>
		<path class="st25" d="M305.04,709.41c0,0-10.54,21.84,0,49.41c0,0-20.6,18.13-37.89,3"/>
		<path class="st25" d="M288.47,755.69c-4.52-28.46,8.54-51.86,8.54-51.86"/>
		<path class="st25" d="M284.43,700.48c0,0-12.07,25.63,0,55.21c0,0-15.95,21.77-34.58,7.27"/>
		<path class="st25" d="M277.24,754.39c-22.92-7.9-22.42-32.83-22.42-32.83"/>
		<path class="st25" d="M270.89,709.41c0,0-6.96,16.39,0.29,42.22"/>
		<path class="st25" d="M259.96,703.83c0,0-2.8,34.71,13.32,48.92"/>
		<path class="st25" d="M243.78,721.56c0,0,8.74,33.15,51.32,35.6"/>
		<path class="st25" d="M231.4,690.44c0,0-13.23,11.17-5.2,43.51"/>
		<path class="st25" d="M245.76,700.48c0,0-13.49,22.11,0,44.58"/>
		<path class="st25" d="M231.4,709.41c0,0-3.17,20.97,11.36,33.01"/>
		<path class="st25" d="M216.34,690.44c0,0-10.14,19.51,2.87,39.32"/>
		<path class="st25" d="M318.82,758.49c0,0,86.59,2.23,117.72-49.08"/>
		<path class="st25" d="M452.6,714.99c0,0-10.91,16.92-31.31,12.36"/>
		<path class="st25" d="M446.07,733.96c0,0-23.45,15.94-39.84,4.06"/>
		<path class="st25" d="M387.78,746.69c29.58,23.89,41.22,5.11,41.22,5.11"/>
		<path class="st25" d="M372.31,751.63c0,0,26.49,11.65,39.11,1.12"/>
		<path class="st25" d="M332.59,709.41c0,0,10.54,21.84,0,49.41c0,0,20.6,18.13,37.89,3"/>
		<path class="st25" d="M349.16,755.69c4.52-28.46-8.54-51.86-8.54-51.86"/>
		<path class="st25" d="M353.2,700.48c0,0,12.07,25.63,0,55.21c0,0,15.95,21.77,34.58,7.27"/>
		<path class="st25" d="M360.39,754.39c22.92-7.9,22.42-32.83,22.42-32.83"/>
		<path class="st25" d="M366.74,709.41c0,0,6.96,16.39-0.29,42.22"/>
		<path class="st25" d="M377.67,703.83c0,0,2.8,34.71-13.32,48.92"/>
		<path class="st25" d="M393.85,721.56c0,0-8.74,33.15-51.32,35.6"/>
		<path class="st25" d="M406.23,690.44c0,0,13.23,11.17,5.2,43.51"/>
		<path class="st25" d="M391.87,700.48c0,0,13.49,22.11,0,44.58"/>
		<path class="st25" d="M406.23,709.41c0,0,3.17,20.97-11.36,33.01"/>
		<path class="st25" d="M421.29,690.44c0,0,10.14,19.51-2.87,39.32"/>
	</g>
	<g>
		<path class="st26" d="M318.82,670.64c0,0-64.46,1.95-87.63-42.81"/>
		<path class="st26" d="M219.22,632.69c0,0,8.12,14.75,23.31,10.78"/>
		<path class="st26" d="M224.08,649.24c0,0,17.46,13.91,29.66,3.54"/>
		<path class="st26" d="M267.48,660.34c-22.02,20.84-30.69,4.46-30.69,4.46"/>
		<path class="st26" d="M278.99,664.65c0,0-19.72,10.17-29.12,0.98"/>
		<path class="st26" d="M308.56,627.83c0,0-7.85,19.05,0,43.09c0,0-15.34,15.81-28.21,2.62"/>
		<path class="st26" d="M296.22,668.19c-3.36-24.83,6.35-45.23,6.35-45.23"/>
		<path class="st26" d="M293.22,620.04c0,0-8.98,22.35,0,48.15c0,0-11.88,18.99-25.74,6.34"/>
		<path class="st26" d="M287.87,667.06c-17.06-6.89-16.69-28.64-16.69-28.64"/>
		<path class="st26" d="M283.14,627.83c0,0-5.18,14.29,0.21,36.82"/>
		<path class="st26" d="M275,622.96c0,0-2.08,30.28,9.92,42.67"/>
		<path class="st26" d="M262.95,638.42c0,0,6.51,28.91,38.2,31.05"/>
		<path class="st26" d="M253.74,611.28c0,0-9.85,9.74-3.87,37.95"/>
		<path class="st26" d="M264.43,620.04c0,0-10.04,19.28,0,38.88"/>
		<path class="st26" d="M253.74,627.83c0,0-2.36,18.29,8.46,28.79"/>
		<path class="st26" d="M242.53,611.28c0,0-7.55,17.01,2.14,34.29"/>
		<path class="st26" d="M318.82,670.64c0,0,64.46,1.95,87.63-42.81"/>
		<path class="st26" d="M418.41,632.69c0,0-8.12,14.75-23.31,10.78"/>
		<path class="st26" d="M413.55,649.24c0,0-17.46,13.91-29.66,3.54"/>
		<path class="st26" d="M370.15,660.34c22.02,20.84,30.69,4.46,30.69,4.46"/>
		<path class="st26" d="M358.64,664.65c0,0,19.72,10.17,29.12,0.98"/>
		<path class="st26" d="M329.07,627.83c0,0,7.85,19.05,0,43.09c0,0,15.34,15.81,28.21,2.62"/>
		<path class="st26" d="M341.41,668.19c3.36-24.83-6.35-45.23-6.35-45.23"/>
		<path class="st26" d="M344.41,620.04c0,0,8.98,22.35,0,48.15c0,0,11.88,18.99,25.74,6.34"/>
		<path class="st26" d="M349.77,667.06c17.06-6.89,16.69-28.64,16.69-28.64"/>
		<path class="st26" d="M354.49,627.83c0,0,5.18,14.29-0.21,36.82"/>
		<path class="st26" d="M362.63,622.96c0,0,2.08,30.28-9.92,42.67"/>
		<path class="st26" d="M374.68,638.42c0,0-6.51,28.91-38.2,31.05"/>
		<path class="st26" d="M383.89,611.28c0,0,9.85,9.74,3.87,37.95"/>
		<path class="st26" d="M373.2,620.04c0,0,10.04,19.28,0,38.88"/>
		<path class="st26" d="M383.89,627.83c0,0,2.36,18.29-8.46,28.79"/>
		<path class="st26" d="M395.1,611.28c0,0,7.55,17.01-2.14,34.29"/>
	</g>
	<g>
		<path class="st26" d="M318.82,593.77c0,0-46.52,1.4-63.25-30.9"/>
		<path class="st26" d="M246.93,566.38c0,0,5.86,10.65,16.82,7.78"/>
		<path class="st26" d="M250.44,578.33c0,0,12.6,10.04,21.41,2.56"/>
		<path class="st26" d="M281.76,586.34c-15.89,15.04-22.15,3.22-22.15,3.22"/>
		<path class="st26" d="M290.07,589.45c0,0-14.23,7.34-21.02,0.71"/>
		<path class="st26" d="M311.41,562.87c0,0-5.67,13.75,0,31.1c0,0-11.07,11.41-20.36,1.89"/>
		<path class="st26" d="M302.51,592.01c-2.43-17.92,4.59-32.65,4.59-32.65"/>
		<path class="st26" d="M300.34,557.25c0,0-6.48,16.13,0,34.75c0,0-8.57,13.7-18.58,4.57"/>
		<path class="st26" d="M296.48,591.19c-12.32-4.98-12.04-20.67-12.04-20.67"/>
		<path class="st26" d="M293.07,562.87c0,0-3.74,10.32,0.15,26.58"/>
		<path class="st26" d="M287.19,559.36c0,0-1.5,21.85,7.16,30.79"/>
		<path class="st26" d="M278.5,570.52c0,0,4.7,20.87,27.57,22.41"/>
		<path class="st26" d="M271.85,550.93c0,0-7.11,7.03-2.79,27.39"/>
		<path class="st26" d="M279.56,557.25c0,0-7.25,13.92,0,28.06"/>
		<path class="st26" d="M271.85,562.87c0,0-1.7,13.2,6.1,20.78"/>
		<path class="st26" d="M263.76,550.93c0,0-5.45,12.28,1.54,24.75"/>
		<path class="st26" d="M318.82,593.77c0,0,46.52,1.4,63.25-30.9"/>
		<path class="st26" d="M390.7,566.38c0,0-5.86,10.65-16.82,7.78"/>
		<path class="st26" d="M387.19,578.33c0,0-12.6,10.04-21.41,2.56"/>
		<path class="st26" d="M355.87,586.34c15.89,15.04,22.15,3.22,22.15,3.22"/>
		<path class="st26" d="M347.56,589.45c0,0,14.23,7.34,21.02,0.71"/>
		<path class="st26" d="M326.22,562.87c0,0,5.67,13.75,0,31.1c0,0,11.07,11.41,20.36,1.89"/>
		<path class="st26" d="M335.12,592.01c2.43-17.92-4.59-32.65-4.59-32.65"/>
		<path class="st26" d="M337.29,557.25c0,0,6.48,16.13,0,34.75c0,0,8.57,13.7,18.58,4.57"/>
		<path class="st26" d="M341.15,591.19c12.32-4.98,12.04-20.67,12.04-20.67"/>
		<path class="st26" d="M344.56,562.87c0,0,3.74,10.32-0.15,26.58"/>
		<path class="st26" d="M350.44,559.36c0,0,1.5,21.85-7.16,30.79"/>
		<path class="st26" d="M359.13,570.52c0,0-4.7,20.87-27.57,22.41"/>
		<path class="st26" d="M365.78,550.93c0,0,7.11,7.03,2.79,27.39"/>
		<path class="st26" d="M358.07,557.25c0,0,7.25,13.92,0,28.06"/>
		<path class="st26" d="M365.78,562.87c0,0,1.7,13.2-6.1,20.78"/>
		<path class="st26" d="M373.87,550.93c0,0,5.45,12.28-1.54,24.75"/>
	</g>
	<path class="st26" d="M303.93,510.37c0,0,8.59,20.04,14.89,24.66"/>
	<path class="st26" d="M296.48,528c0,0,6.55,22.97,22.34,27.22"/>
	<path class="st26" d="M333.7,510.37c0,0-8.59,20.04-14.89,24.66"/>
	<path class="st26" d="M341.15,528c0,0-6.55,22.97-22.34,27.22"/>
</g>
<g>
	<g>
		<path class="st4" d="M706.94,490.72c-0.1,46.2,0.44,92.41,1.13,138.61l2.01,138.61l2.01,138.61l2.26,138.61
			c0.09,5.37-4.19,9.79-9.56,9.88c-5.37,0.09-9.79-4.19-9.88-9.56c0-0.09,0-0.23,0-0.32l2.26-138.61l2.01-138.61l2.01-138.61
			c0.69-46.2,1.23-92.41,1.13-138.61c0-1.28,1.03-2.33,2.32-2.33c1.28,0,2.33,1.03,2.33,2.32V490.72z"/>
	</g>
	<g>
		<path class="st5" d="M704.62,942.77c0,0-128.48,2.62-174.67-57.58"/>
		<path class="st5" d="M506.11,891.73c0,0,16.19,19.84,46.46,14.5"/>
		<path class="st5" d="M515.8,913.98c0,0,34.8,18.7,59.12,4.77"/>
		<path class="st5" d="M602.29,928.92c-43.89,28.03-61.17,6-61.17,6"/>
		<path class="st5" d="M625.24,934.71c0,0-39.31,13.67-58.04,1.32"/>
		<path class="st5" d="M684.18,885.19c0,0-15.65,25.62,0,57.96c0,0-30.57,21.27-56.23,3.52"/>
		<path class="st5" d="M659.59,939.48c-6.71-33.39,12.67-60.84,12.67-60.84"/>
		<path class="st5" d="M653.6,874.72c0,0-17.91,30.06,0,64.76c0,0-23.67,25.54-51.31,8.52"/>
		<path class="st5" d="M642.93,937.96c-34.01-9.27-33.26-38.52-33.26-38.52"/>
		<path class="st5" d="M633.51,885.19c0,0-10.33,19.22,0.42,49.53"/>
		<path class="st5" d="M617.29,878.64c0,0-4.15,40.72,19.76,57.39"/>
		<path class="st5" d="M593.28,899.44c0,0,12.97,38.88,76.15,41.76"/>
		<path class="st5" d="M574.92,862.94c0,0-19.63,13.1-7.71,51.05"/>
		<path class="st5" d="M596.22,874.72c0,0-20.02,25.94,0,52.3"/>
		<path class="st5" d="M574.92,885.19c0,0-4.7,24.6,16.86,38.73"/>
		<path class="st5" d="M552.57,862.94c0,0-15.04,22.88,4.27,46.12"/>
		<path class="st5" d="M704.62,942.77c0,0,128.48,2.62,174.67-57.58"/>
		<path class="st5" d="M903.13,891.73c0,0-16.19,19.84-46.46,14.5"/>
		<path class="st5" d="M893.44,913.98c0,0-34.8,18.7-59.12,4.77"/>
		<path class="st5" d="M806.95,928.92c43.89,28.03,61.17,6,61.17,6"/>
		<path class="st5" d="M784,934.71c0,0,39.31,13.67,58.04,1.32"/>
		<path class="st5" d="M725.06,885.19c0,0,15.65,25.62,0,57.96c0,0,30.57,21.27,56.23,3.52"/>
		<path class="st5" d="M749.65,939.48c6.71-33.39-12.67-60.84-12.67-60.84"/>
		<path class="st5" d="M755.64,874.72c0,0,17.91,30.06,0,64.76c0,0,23.67,25.54,51.31,8.52"/>
		<path class="st5" d="M766.31,937.96c34.01-9.27,33.26-38.52,33.26-38.52"/>
		<path class="st5" d="M775.73,885.19c0,0,10.33,19.22-0.42,49.53"/>
		<path class="st5" d="M791.95,878.64c0,0,4.15,40.72-19.76,57.39"/>
		<path class="st5" d="M815.96,899.44c0,0-12.97,38.88-76.15,41.76"/>
		<path class="st5" d="M834.32,862.94c0,0,19.63,13.1,7.71,51.05"/>
		<path class="st5" d="M813.02,874.72c0,0,20.02,25.94,0,52.3"/>
		<path class="st5" d="M834.32,885.19c0,0,4.7,24.6-16.86,38.73"/>
		<path class="st5" d="M856.67,862.94c0,0,15.04,22.88-4.27,46.12"/>
	</g>
	<g>
		<path class="st5" d="M704.62,841.98c0,0-113.05,2.62-153.69-57.58"/>
		<path class="st5" d="M529.95,790.94c0,0,14.24,19.84,40.88,14.5"/>
		<path class="st5" d="M538.47,813.2c0,0,30.62,18.7,52.02,4.77"/>
		<path class="st5" d="M614.58,828.13c-38.61,28.03-53.82,6-53.82,6"/>
		<path class="st5" d="M634.78,833.92c0,0-34.58,13.67-51.07,1.32"/>
		<path class="st5" d="M686.63,784.4c0,0-13.77,25.62,0,57.96c0,0-26.9,21.27-49.47,3.52"/>
		<path class="st5" d="M665,838.69c-5.9-33.39,11.14-60.84,11.14-60.84"/>
		<path class="st5" d="M659.73,773.93c0,0-15.76,30.06,0,64.76c0,0-20.83,25.54-45.15,8.52"/>
		<path class="st5" d="M650.34,837.17c-29.93-9.27-29.27-38.52-29.27-38.52"/>
		<path class="st5" d="M642.05,784.4c0,0-9.09,19.22,0.37,49.53"/>
		<path class="st5" d="M627.77,777.85c0,0-3.65,40.72,17.39,57.39"/>
		<path class="st5" d="M606.65,798.65c0,0,11.41,38.88,67,41.76"/>
		<path class="st5" d="M590.49,762.15c0,0-17.27,13.1-6.79,51.05"/>
		<path class="st5" d="M609.24,773.93c0,0-17.61,25.94,0,52.3"/>
		<path class="st5" d="M590.49,784.4c0,0-4.14,24.6,14.83,38.73"/>
		<path class="st5" d="M570.83,762.15c0,0-13.23,22.88,3.75,46.12"/>
		<path class="st5" d="M704.62,841.98c0,0,113.05,2.62,153.69-57.58"/>
		<path class="st5" d="M879.29,790.94c0,0-14.24,19.84-40.88,14.5"/>
		<path class="st5" d="M870.77,813.2c0,0-30.62,18.7-52.02,4.77"/>
		<path class="st5" d="M794.66,828.13c38.61,28.03,53.82,6,53.82,6"/>
		<path class="st5" d="M774.46,833.92c0,0,34.58,13.67,51.07,1.32"/>
		<path class="st5" d="M722.61,784.4c0,0,13.77,25.62,0,57.96c0,0,26.9,21.27,49.47,3.52"/>
		<path class="st5" d="M744.24,838.69c5.9-33.39-11.14-60.84-11.14-60.84"/>
		<path class="st5" d="M749.51,773.93c0,0,15.76,30.06,0,64.76c0,0,20.83,25.54,45.15,8.52"/>
		<path class="st5" d="M758.9,837.17c29.93-9.27,29.27-38.52,29.27-38.52"/>
		<path class="st5" d="M767.19,784.4c0,0,9.09,19.22-0.37,49.53"/>
		<path class="st5" d="M781.47,777.85c0,0,3.65,40.72-17.39,57.39"/>
		<path class="st5" d="M802.59,798.65c0,0-11.41,38.88-67,41.76"/>
		<path class="st5" d="M818.75,762.15c0,0,17.27,13.1,6.79,51.05"/>
		<path class="st5" d="M800,773.93c0,0,17.61,25.94,0,52.3"/>
		<path class="st5" d="M818.75,784.4c0,0,4.14,24.6-14.83,38.73"/>
		<path class="st5" d="M838.41,762.15c0,0,13.23,22.88-3.75,46.12"/>
	</g>
	<g>
		<path class="st6" d="M704.62,741.14c0,0-86.59,2.23-117.72-49.08"/>
		<path class="st6" d="M570.83,697.63c0,0,10.91,16.92,31.31,12.36"/>
		<path class="st6" d="M577.36,716.6c0,0,23.45,15.94,39.84,4.06"/>
		<path class="st6" d="M635.66,729.33c-29.58,23.89-41.22,5.11-41.22,5.11"/>
		<path class="st6" d="M651.12,734.27c0,0-26.49,11.65-39.11,1.12"/>
		<path class="st6" d="M690.84,692.05c0,0-10.54,21.84,0,49.41c0,0-20.6,18.13-37.89,3"/>
		<path class="st6" d="M674.27,738.33c-4.52-28.46,8.54-51.86,8.54-51.86"/>
		<path class="st6" d="M670.24,683.13c0,0-12.07,25.63,0,55.21c0,0-15.95,21.77-34.58,7.27"/>
		<path class="st6" d="M663.05,737.04c-22.92-7.9-22.42-32.83-22.42-32.83"/>
		<path class="st6" d="M656.7,692.05c0,0-6.96,16.39,0.29,42.22"/>
		<path class="st6" d="M645.76,686.47c0,0-2.8,34.71,13.32,48.92"/>
		<path class="st6" d="M629.58,704.2c0,0,8.74,33.15,51.32,35.6"/>
		<path class="st6" d="M617.21,673.09c0,0-13.23,11.17-5.2,43.51"/>
		<path class="st6" d="M631.57,683.13c0,0-13.49,22.11,0,44.58"/>
		<path class="st6" d="M617.21,692.05c0,0-3.17,20.97,11.36,33.01"/>
		<path class="st6" d="M602.15,673.09c0,0-10.14,19.51,2.87,39.32"/>
		<path class="st6" d="M704.62,741.14c0,0,86.59,2.23,117.72-49.08"/>
		<path class="st6" d="M838.41,697.63c0,0-10.91,16.92-31.31,12.36"/>
		<path class="st6" d="M831.88,716.6c0,0-23.45,15.94-39.84,4.06"/>
		<path class="st6" d="M773.58,729.33c29.58,23.89,41.22,5.11,41.22,5.11"/>
		<path class="st6" d="M758.12,734.27c0,0,26.49,11.65,39.11,1.12"/>
		<path class="st6" d="M718.4,692.05c0,0,10.54,21.84,0,49.41c0,0,20.6,18.13,37.89,3"/>
		<path class="st6" d="M734.97,738.33c4.52-28.46-8.54-51.86-8.54-51.86"/>
		<path class="st6" d="M739,683.13c0,0,12.07,25.63,0,55.21c0,0,15.95,21.77,34.58,7.27"/>
		<path class="st6" d="M746.19,737.04c22.92-7.9,22.42-32.83,22.42-32.83"/>
		<path class="st6" d="M752.54,692.05c0,0,6.96,16.39-0.29,42.22"/>
		<path class="st6" d="M763.48,686.47c0,0,2.8,34.71-13.32,48.92"/>
		<path class="st6" d="M779.66,704.2c0,0-8.74,33.15-51.32,35.6"/>
		<path class="st6" d="M792.03,673.09c0,0,13.23,11.17,5.2,43.51"/>
		<path class="st6" d="M777.67,683.13c0,0,13.49,22.11,0,44.58"/>
		<path class="st6" d="M792.03,692.05c0,0,3.17,20.97-11.36,33.01"/>
		<path class="st6" d="M807.09,673.09c0,0,10.14,19.51-2.87,39.32"/>
	</g>
	<g>
		<path class="st7" d="M704.62,653.28c0,0-64.46,1.95-87.63-42.81"/>
		<path class="st7" d="M605.02,615.33c0,0,8.12,14.75,23.31,10.78"/>
		<path class="st7" d="M609.88,631.88c0,0,17.46,13.91,29.66,3.54"/>
		<path class="st7" d="M653.28,642.98c-22.02,20.84-30.69,4.46-30.69,4.46"/>
		<path class="st7" d="M664.79,647.29c0,0-19.72,10.17-29.12,0.98"/>
		<path class="st7" d="M694.36,610.47c0,0-7.85,19.05,0,43.09c0,0-15.34,15.81-28.21,2.62"/>
		<path class="st7" d="M682.03,650.84c-3.36-24.83,6.35-45.23,6.35-45.23"/>
		<path class="st7" d="M679.02,602.69c0,0-8.98,22.35,0,48.15c0,0-11.88,18.99-25.74,6.34"/>
		<path class="st7" d="M673.67,649.7c-17.06-6.89-16.69-28.64-16.69-28.64"/>
		<path class="st7" d="M668.94,610.47c0,0-5.18,14.29,0.21,36.82"/>
		<path class="st7" d="M660.8,605.6c0,0-2.08,30.28,9.92,42.67"/>
		<path class="st7" d="M648.76,621.07c0,0,6.51,28.91,38.2,31.05"/>
		<path class="st7" d="M639.54,593.93c0,0-9.85,9.74-3.87,37.95"/>
		<path class="st7" d="M650.23,602.69c0,0-10.04,19.28,0,38.88"/>
		<path class="st7" d="M639.54,610.47c0,0-2.36,18.29,8.46,28.79"/>
		<path class="st7" d="M628.33,593.93c0,0-7.55,17.01,2.14,34.29"/>
		<path class="st7" d="M704.62,653.28c0,0,64.46,1.95,87.63-42.81"/>
		<path class="st7" d="M804.22,615.33c0,0-8.12,14.75-23.31,10.78"/>
		<path class="st7" d="M799.36,631.88c0,0-17.46,13.91-29.66,3.54"/>
		<path class="st7" d="M755.96,642.98c22.02,20.84,30.69,4.46,30.69,4.46"/>
		<path class="st7" d="M744.45,647.29c0,0,19.72,10.17,29.12,0.98"/>
		<path class="st7" d="M714.88,610.47c0,0,7.85,19.05,0,43.09c0,0,15.34,15.81,28.21,2.62"/>
		<path class="st7" d="M727.21,650.84c3.36-24.83-6.35-45.23-6.35-45.23"/>
		<path class="st7" d="M730.22,602.69c0,0,8.98,22.35,0,48.15c0,0,11.88,18.99,25.74,6.34"/>
		<path class="st7" d="M735.57,649.7c17.06-6.89,16.69-28.64,16.69-28.64"/>
		<path class="st7" d="M740.3,610.47c0,0,5.18,14.29-0.21,36.82"/>
		<path class="st7" d="M748.44,605.6c0,0,2.08,30.28-9.92,42.67"/>
		<path class="st7" d="M760.48,621.07c0,0-6.51,28.91-38.2,31.05"/>
		<path class="st7" d="M769.7,593.93c0,0,9.85,9.74,3.87,37.95"/>
		<path class="st7" d="M759.01,602.69c0,0,10.04,19.28,0,38.88"/>
		<path class="st7" d="M769.7,610.47c0,0,2.36,18.29-8.46,28.79"/>
		<path class="st7" d="M780.9,593.93c0,0,7.55,17.01-2.14,34.29"/>
	</g>
	<g>
		<path class="st5" d="M704.62,942.77c0,0-128.48,2.62-174.67-57.58"/>
		<path class="st5" d="M506.11,891.73c0,0,16.19,19.84,46.46,14.5"/>
		<path class="st5" d="M515.8,913.98c0,0,34.8,18.7,59.12,4.77"/>
		<path class="st5" d="M602.29,928.92c-43.89,28.03-61.17,6-61.17,6"/>
		<path class="st5" d="M625.24,934.71c0,0-39.31,13.67-58.04,1.32"/>
		<path class="st5" d="M684.18,885.19c0,0-15.65,25.62,0,57.96c0,0-30.57,21.27-56.23,3.52"/>
		<path class="st5" d="M659.59,939.48c-6.71-33.39,12.67-60.84,12.67-60.84"/>
		<path class="st5" d="M653.6,874.72c0,0-17.91,30.06,0,64.76c0,0-23.67,25.54-51.31,8.52"/>
		<path class="st5" d="M642.93,937.96c-34.01-9.27-33.26-38.52-33.26-38.52"/>
		<path class="st5" d="M633.51,885.19c0,0-10.33,19.22,0.42,49.53"/>
		<path class="st5" d="M617.29,878.64c0,0-4.15,40.72,19.76,57.39"/>
		<path class="st5" d="M593.28,899.44c0,0,12.97,38.88,76.15,41.76"/>
		<path class="st5" d="M574.92,862.94c0,0-19.63,13.1-7.71,51.05"/>
		<path class="st5" d="M596.22,874.72c0,0-20.02,25.94,0,52.3"/>
		<path class="st5" d="M574.92,885.19c0,0-4.7,24.6,16.86,38.73"/>
		<path class="st5" d="M552.57,862.94c0,0-15.04,22.88,4.27,46.12"/>
		<path class="st5" d="M704.62,942.77c0,0,128.48,2.62,174.67-57.58"/>
		<path class="st5" d="M903.13,891.73c0,0-16.19,19.84-46.46,14.5"/>
		<path class="st5" d="M893.44,913.98c0,0-34.8,18.7-59.12,4.77"/>
		<path class="st5" d="M806.95,928.92c43.89,28.03,61.17,6,61.17,6"/>
		<path class="st5" d="M784,934.71c0,0,39.31,13.67,58.04,1.32"/>
		<path class="st5" d="M725.06,885.19c0,0,15.65,25.62,0,57.96c0,0,30.57,21.27,56.23,3.52"/>
		<path class="st5" d="M749.65,939.48c6.71-33.39-12.67-60.84-12.67-60.84"/>
		<path class="st5" d="M755.64,874.72c0,0,17.91,30.06,0,64.76c0,0,23.67,25.54,51.31,8.52"/>
		<path class="st5" d="M766.31,937.96c34.01-9.27,33.26-38.52,33.26-38.52"/>
		<path class="st5" d="M775.73,885.19c0,0,10.33,19.22-0.42,49.53"/>
		<path class="st5" d="M791.95,878.64c0,0,4.15,40.72-19.76,57.39"/>
		<path class="st5" d="M815.96,899.44c0,0-12.97,38.88-76.15,41.76"/>
		<path class="st5" d="M834.32,862.94c0,0,19.63,13.1,7.71,51.05"/>
		<path class="st5" d="M813.02,874.72c0,0,20.02,25.94,0,52.3"/>
		<path class="st5" d="M834.32,885.19c0,0,4.7,24.6-16.86,38.73"/>
		<path class="st5" d="M856.67,862.94c0,0,15.04,22.88-4.27,46.12"/>
	</g>
	<g>
		<path class="st5" d="M704.62,841.98c0,0-113.05,2.62-153.69-57.58"/>
		<path class="st5" d="M529.95,790.94c0,0,14.24,19.84,40.88,14.5"/>
		<path class="st5" d="M538.47,813.2c0,0,30.62,18.7,52.02,4.77"/>
		<path class="st5" d="M614.58,828.13c-38.61,28.03-53.82,6-53.82,6"/>
		<path class="st5" d="M634.78,833.92c0,0-34.58,13.67-51.07,1.32"/>
		<path class="st5" d="M686.63,784.4c0,0-13.77,25.62,0,57.96c0,0-26.9,21.27-49.47,3.52"/>
		<path class="st5" d="M665,838.69c-5.9-33.39,11.14-60.84,11.14-60.84"/>
		<path class="st5" d="M659.73,773.93c0,0-15.76,30.06,0,64.76c0,0-20.83,25.54-45.15,8.52"/>
		<path class="st5" d="M650.34,837.17c-29.93-9.27-29.27-38.52-29.27-38.52"/>
		<path class="st5" d="M642.05,784.4c0,0-9.09,19.22,0.37,49.53"/>
		<path class="st5" d="M627.77,777.85c0,0-3.65,40.72,17.39,57.39"/>
		<path class="st5" d="M606.65,798.65c0,0,11.41,38.88,67,41.76"/>
		<path class="st5" d="M590.49,762.15c0,0-17.27,13.1-6.79,51.05"/>
		<path class="st5" d="M609.24,773.93c0,0-17.61,25.94,0,52.3"/>
		<path class="st5" d="M590.49,784.4c0,0-4.14,24.6,14.83,38.73"/>
		<path class="st5" d="M570.83,762.15c0,0-13.23,22.88,3.75,46.12"/>
		<path class="st5" d="M704.62,841.98c0,0,113.05,2.62,153.69-57.58"/>
		<path class="st5" d="M879.29,790.94c0,0-14.24,19.84-40.88,14.5"/>
		<path class="st5" d="M870.77,813.2c0,0-30.62,18.7-52.02,4.77"/>
		<path class="st5" d="M794.66,828.13c38.61,28.03,53.82,6,53.82,6"/>
		<path class="st5" d="M774.46,833.92c0,0,34.58,13.67,51.07,1.32"/>
		<path class="st5" d="M722.61,784.4c0,0,13.77,25.62,0,57.96c0,0,26.9,21.27,49.47,3.52"/>
		<path class="st5" d="M744.24,838.69c5.9-33.39-11.14-60.84-11.14-60.84"/>
		<path class="st5" d="M749.51,773.93c0,0,15.76,30.06,0,64.76c0,0,20.83,25.54,45.15,8.52"/>
		<path class="st5" d="M758.9,837.17c29.93-9.27,29.27-38.52,29.27-38.52"/>
		<path class="st5" d="M767.19,784.4c0,0,9.09,19.22-0.37,49.53"/>
		<path class="st5" d="M781.47,777.85c0,0,3.65,40.72-17.39,57.39"/>
		<path class="st5" d="M802.59,798.65c0,0-11.41,38.88-67,41.76"/>
		<path class="st5" d="M818.75,762.15c0,0,17.27,13.1,6.79,51.05"/>
		<path class="st5" d="M800,773.93c0,0,17.61,25.94,0,52.3"/>
		<path class="st5" d="M818.75,784.4c0,0,4.14,24.6-14.83,38.73"/>
		<path class="st5" d="M838.41,762.15c0,0,13.23,22.88-3.75,46.12"/>
	</g>
	<g>
		<path class="st6" d="M704.62,741.14c0,0-86.59,2.23-117.72-49.08"/>
		<path class="st6" d="M570.83,697.63c0,0,10.91,16.92,31.31,12.36"/>
		<path class="st6" d="M577.36,716.6c0,0,23.45,15.94,39.84,4.06"/>
		<path class="st6" d="M635.66,729.33c-29.58,23.89-41.22,5.11-41.22,5.11"/>
		<path class="st6" d="M651.12,734.27c0,0-26.49,11.65-39.11,1.12"/>
		<path class="st6" d="M690.84,692.05c0,0-10.54,21.84,0,49.41c0,0-20.6,18.13-37.89,3"/>
		<path class="st6" d="M674.27,738.33c-4.52-28.46,8.54-51.86,8.54-51.86"/>
		<path class="st6" d="M670.24,683.13c0,0-12.07,25.63,0,55.21c0,0-15.95,21.77-34.58,7.27"/>
		<path class="st6" d="M663.05,737.04c-22.92-7.9-22.42-32.83-22.42-32.83"/>
		<path class="st6" d="M656.7,692.05c0,0-6.96,16.39,0.29,42.22"/>
		<path class="st6" d="M645.76,686.47c0,0-2.8,34.71,13.32,48.92"/>
		<path class="st6" d="M629.58,704.2c0,0,8.74,33.15,51.32,35.6"/>
		<path class="st6" d="M617.21,673.09c0,0-13.23,11.17-5.2,43.51"/>
		<path class="st6" d="M631.57,683.13c0,0-13.49,22.11,0,44.58"/>
		<path class="st6" d="M617.21,692.05c0,0-3.17,20.97,11.36,33.01"/>
		<path class="st6" d="M602.15,673.09c0,0-10.14,19.51,2.87,39.32"/>
		<path class="st6" d="M704.62,741.14c0,0,86.59,2.23,117.72-49.08"/>
		<path class="st6" d="M838.41,697.63c0,0-10.91,16.92-31.31,12.36"/>
		<path class="st6" d="M831.88,716.6c0,0-23.45,15.94-39.84,4.06"/>
		<path class="st6" d="M773.58,729.33c29.58,23.89,41.22,5.11,41.22,5.11"/>
		<path class="st6" d="M758.12,734.27c0,0,26.49,11.65,39.11,1.12"/>
		<path class="st6" d="M718.4,692.05c0,0,10.54,21.84,0,49.41c0,0,20.6,18.13,37.89,3"/>
		<path class="st6" d="M734.97,738.33c4.52-28.46-8.54-51.86-8.54-51.86"/>
		<path class="st6" d="M739,683.13c0,0,12.07,25.63,0,55.21c0,0,15.95,21.77,34.58,7.27"/>
		<path class="st6" d="M746.19,737.04c22.92-7.9,22.42-32.83,22.42-32.83"/>
		<path class="st6" d="M752.54,692.05c0,0,6.96,16.39-0.29,42.22"/>
		<path class="st6" d="M763.48,686.47c0,0,2.8,34.71-13.32,48.92"/>
		<path class="st6" d="M779.66,704.2c0,0-8.74,33.15-51.32,35.6"/>
		<path class="st6" d="M792.03,673.09c0,0,13.23,11.17,5.2,43.51"/>
		<path class="st6" d="M777.67,683.13c0,0,13.49,22.11,0,44.58"/>
		<path class="st6" d="M792.03,692.05c0,0,3.17,20.97-11.36,33.01"/>
		<path class="st6" d="M807.09,673.09c0,0,10.14,19.51-2.87,39.32"/>
	</g>
	<g>
		<path class="st7" d="M704.62,653.28c0,0-64.46,1.95-87.63-42.81"/>
		<path class="st7" d="M605.02,615.33c0,0,8.12,14.75,23.31,10.78"/>
		<path class="st7" d="M609.88,631.88c0,0,17.46,13.91,29.66,3.54"/>
		<path class="st7" d="M653.28,642.98c-22.02,20.84-30.69,4.46-30.69,4.46"/>
		<path class="st7" d="M664.79,647.29c0,0-19.72,10.17-29.12,0.98"/>
		<path class="st7" d="M694.36,610.47c0,0-7.85,19.05,0,43.09c0,0-15.34,15.81-28.21,2.62"/>
		<path class="st7" d="M682.03,650.84c-3.36-24.83,6.35-45.23,6.35-45.23"/>
		<path class="st7" d="M679.02,602.69c0,0-8.98,22.35,0,48.15c0,0-11.88,18.99-25.74,6.34"/>
		<path class="st7" d="M673.67,649.7c-17.06-6.89-16.69-28.64-16.69-28.64"/>
		<path class="st7" d="M668.94,610.47c0,0-5.18,14.29,0.21,36.82"/>
		<path class="st7" d="M660.8,605.6c0,0-2.08,30.28,9.92,42.67"/>
		<path class="st7" d="M648.76,621.07c0,0,6.51,28.91,38.2,31.05"/>
		<path class="st7" d="M639.54,593.93c0,0-9.85,9.74-3.87,37.95"/>
		<path class="st7" d="M650.23,602.69c0,0-10.04,19.28,0,38.88"/>
		<path class="st7" d="M639.54,610.47c0,0-2.36,18.29,8.46,28.79"/>
		<path class="st7" d="M628.33,593.93c0,0-7.55,17.01,2.14,34.29"/>
		<path class="st7" d="M704.62,653.28c0,0,64.46,1.95,87.63-42.81"/>
		<path class="st7" d="M804.22,615.33c0,0-8.12,14.75-23.31,10.78"/>
		<path class="st7" d="M799.36,631.88c0,0-17.46,13.91-29.66,3.54"/>
		<path class="st7" d="M755.96,642.98c22.02,20.84,30.69,4.46,30.69,4.46"/>
		<path class="st7" d="M744.45,647.29c0,0,19.72,10.17,29.12,0.98"/>
		<path class="st7" d="M714.88,610.47c0,0,7.85,19.05,0,43.09c0,0,15.34,15.81,28.21,2.62"/>
		<path class="st7" d="M727.21,650.84c3.36-24.83-6.35-45.23-6.35-45.23"/>
		<path class="st7" d="M730.22,602.69c0,0,8.98,22.35,0,48.15c0,0,11.88,18.99,25.74,6.34"/>
		<path class="st7" d="M735.57,649.7c17.06-6.89,16.69-28.64,16.69-28.64"/>
		<path class="st7" d="M740.3,610.47c0,0,5.18,14.29-0.21,36.82"/>
		<path class="st7" d="M748.44,605.6c0,0,2.08,30.28-9.92,42.67"/>
		<path class="st7" d="M760.48,621.07c0,0-6.51,28.91-38.2,31.05"/>
		<path class="st7" d="M769.7,593.93c0,0,9.85,9.74,3.87,37.95"/>
		<path class="st7" d="M759.01,602.69c0,0,10.04,19.28,0,38.88"/>
		<path class="st7" d="M769.7,610.47c0,0,2.36,18.29-8.46,28.79"/>
		<path class="st7" d="M780.9,593.93c0,0,7.55,17.01-2.14,34.29"/>
	</g>
	<g>
		<path class="st7" d="M704.62,576.42c0,0-46.52,1.4-63.25-30.9"/>
		<path class="st7" d="M632.74,549.03c0,0,5.86,10.65,16.82,7.78"/>
		<path class="st7" d="M636.25,560.97c0,0,12.6,10.04,21.41,2.56"/>
		<path class="st7" d="M667.57,568.98c-15.89,15.04-22.15,3.22-22.15,3.22"/>
		<path class="st7" d="M675.88,572.09c0,0-14.23,7.34-21.02,0.71"/>
		<path class="st7" d="M697.22,545.52c0,0-5.67,13.75,0,31.1c0,0-11.07,11.41-20.36,1.89"/>
		<path class="st7" d="M688.31,574.65c-2.43-17.92,4.59-32.65,4.59-32.65"/>
		<path class="st7" d="M686.15,539.9c0,0-6.48,16.13,0,34.75c0,0-8.57,13.7-18.58,4.57"/>
		<path class="st7" d="M682.28,573.83c-12.32-4.98-12.04-20.67-12.04-20.67"/>
		<path class="st7" d="M678.87,545.52c0,0-3.74,10.32,0.15,26.58"/>
		<path class="st7" d="M673,542.01c0,0-1.5,21.85,7.16,30.79"/>
		<path class="st7" d="M664.3,553.16c0,0,4.7,20.87,27.57,22.41"/>
		<path class="st7" d="M657.65,533.58c0,0-7.11,7.03-2.79,27.39"/>
		<path class="st7" d="M665.37,539.9c0,0-7.25,13.92,0,28.06"/>
		<path class="st7" d="M657.65,545.52c0,0-1.7,13.2,6.1,20.78"/>
		<path class="st7" d="M649.56,533.58c0,0-5.45,12.28,1.54,24.75"/>
		<path class="st7" d="M704.62,576.42c0,0,46.52,1.4,63.25-30.9"/>
		<path class="st7" d="M776.5,549.03c0,0-5.86,10.65-16.82,7.78"/>
		<path class="st7" d="M772.99,560.97c0,0-12.6,10.04-21.41,2.56"/>
		<path class="st7" d="M741.67,568.98c15.89,15.04,22.15,3.22,22.15,3.22"/>
		<path class="st7" d="M733.36,572.09c0,0,14.23,7.34,21.02,0.71"/>
		<path class="st7" d="M712.02,545.52c0,0,5.67,13.75,0,31.1c0,0,11.07,11.41,20.36,1.89"/>
		<path class="st7" d="M720.93,574.65c2.43-17.92-4.59-32.65-4.59-32.65"/>
		<path class="st7" d="M723.09,539.9c0,0,6.48,16.13,0,34.75c0,0,8.57,13.7,18.58,4.57"/>
		<path class="st7" d="M726.96,573.83c12.32-4.98,12.04-20.67,12.04-20.67"/>
		<path class="st7" d="M730.37,545.52c0,0,3.74,10.32-0.15,26.58"/>
		<path class="st7" d="M736.24,542.01c0,0,1.5,21.85-7.16,30.79"/>
		<path class="st7" d="M744.94,553.16c0,0-4.7,20.87-27.57,22.41"/>
		<path class="st7" d="M751.59,533.58c0,0,7.11,7.03,2.79,27.39"/>
		<path class="st7" d="M743.87,539.9c0,0,7.25,13.92,0,28.06"/>
		<path class="st7" d="M751.59,545.52c0,0,1.7,13.2-6.1,20.78"/>
		<path class="st7" d="M759.68,533.58c0,0,5.45,12.28-1.54,24.75"/>
	</g>
	<path class="st7" d="M689.73,493.01c0,0,8.59,20.04,14.89,24.66"/>
	<path class="st7" d="M682.28,510.65c0,0,6.55,22.97,22.34,27.22"/>
	<path class="st7" d="M719.51,493.01c0,0-8.59,20.04-14.89,24.66"/>
	<path class="st7" d="M726.96,510.65c0,0-6.55,22.97-22.34,27.22"/>
</g>
</svg>
